<?xml version="1.0" encoding="UTF-8" standalone="no"?><!DOCTYPE svg PUBLIC "-//W3C//DTD SVG 1.1//EN" "http://www.w3.org/Graphics/SVG/1.1/DTD/svg11.dtd"><svg width="100%" height="100%" viewBox="0 0 512 512" version="1.1" xmlns="http://www.w3.org/2000/svg" xmlns:xlink="http://www.w3.org/1999/xlink" xml:space="preserve" xmlns:serif="http://www.serif.com/" style="fill-rule:evenodd;clip-rule:evenodd;stroke-linejoin:round;stroke-miterlimit:1.41421;"><rect id="Red" x="0" y="0" width="512" height="512" style="fill:none;"/><circle id="Red-Circle" serif:id="Red Circle" cx="255.99" cy="256" r="224.5" style="fill:#9a0000;"/><circle id="Floor" cx="255.99" cy="256" r="206.5" style="fill:none;"/><clipPath id="_clip1"><circle cx="255.99" cy="256" r="206.5"/></clipPath><g clip-path="url(#_clip1)"><rect id="_64px" serif:id="64px" x="-44.01" y="430.5" width="600" height="32" style="fill:#fff;"/><rect id="_32px" serif:id="32px" x="-44.009" y="407.5" width="599.997" height="16" style="fill:#fff;"/><rect id="_32px1" serif:id="32px" x="-44.01" y="385.5" width="600" height="16" style="fill:#fff;"/><rect id="_24px" serif:id="24px" x="-104.01" y="367.5" width="720" height="12" style="fill:#fff;"/><rect id="_20px" serif:id="20px" x="-44.01" y="352" width="600" height="10" style="fill:#fff;"/><rect id="_16px" serif:id="16px" x="-44.01" y="340" width="600" height="8" style="fill:#fff;"/><rect id="_10px" serif:id="10px" x="-119.01" y="331.5" width="750" height="5" style="fill:#fff;"/><rect id="_8px" serif:id="8px" x="-44.01" y="324.5" width="600" height="4" style="fill:#fff;"/><rect id="_8px1" serif:id="8px" x="-44.01" y="318" width="600" height="4" style="fill:#fff;"/></g><g transform="matrix(0.976353,0,0,0.976353,222.167,-29.0326)"><text x="-108.062px" y="401.664px" style="font-family:'HiraKakuStdN-W8', 'Hiragino Kaku Gothic StdN', sans-serif;font-weight:800;font-size:288px;fill:#fff;">床</text><path d="M68.04,150.924l1.47,0.602l1.266,0.958l0.979,1.251l0.625,1.46l0.23,1.571l-0.18,1.578l-0.051,0.205l-0.047,0.193l-0.046,0.19l-0.044,0.187l-0.043,0.184l-0.042,0.183l-0.04,0.18l-0.04,0.178l-0.038,0.176l-0.036,0.174l-0.036,0.173l-0.035,0.173l-0.033,0.17l-0.032,0.169l-0.032,0.17l-0.03,0.168l-0.03,0.167l-0.028,0.168l-0.028,0.168l-0.026,0.168l-0.026,0.168l-0.025,0.169l-0.025,0.17l-0.023,0.171l-0.023,0.171l-0.022,0.174l-0.021,0.175l-0.021,0.176l-0.019,0.178l-0.02,0.181l-0.018,0.184l-0.018,0.185l-0.017,0.188l-0.017,0.191l-0.016,0.194l-0.015,0.197l-0.015,0.2l-0.014,0.204l-0.013,0.208l-0.013,0.211l-0.012,0.215l-0.012,0.22l-0.011,0.223l-0.01,0.228l-0.01,0.232l-0.009,0.237l-0.009,0.242l-0.008,0.247l-0.008,0.251l-0.007,0.257l-0.006,0.261l-0.006,0.268l-0.006,0.273l-0.005,0.277l-0.004,0.284l-0.004,0.29l-0.003,0.296l-0.003,0.301l-0.003,0.308l-0.002,0.314l-0.001,0.321l-0.001,0.326l-0.001,0.289l58.365,0l0.787,-0.001l0.775,-0.001l0.766,-0.002l0.756,-0.003l0.747,-0.004l0.737,-0.004l0.729,-0.006l0.719,-0.006l0.711,-0.007l0.702,-0.008l0.693,-0.009l0.685,-0.009l0.676,-0.011l0.668,-0.011l0.66,-0.012l0.652,-0.013l0.644,-0.014l0.636,-0.014l0.629,-0.016l0.621,-0.016l0.614,-0.017l0.606,-0.018l0.599,-0.018l0.592,-0.02l0.585,-0.02l0.579,-0.021l0.572,-0.022l0.565,-0.023l0.559,-0.023l0.553,-0.025l0.547,-0.025l0.541,-0.026l0.534,-0.027l0.529,-0.027l0.523,-0.029l0.518,-0.029l0.512,-0.03l0.508,-0.031l0.502,-0.031l0.497,-0.033l0.492,-0.033l0.488,-0.034l0.483,-0.035l0.478,-0.035l0.475,-0.037l0.47,-0.037l0.466,-0.038l0.462,-0.039l0.458,-0.04l0.455,-0.04l0.451,-0.041l0.448,-0.042l0.444,-0.043l0.442,-0.044l0.439,-0.044l0.436,-0.046l0.433,-0.046l0.43,-0.046l0.428,-0.048l0.426,-0.049l0.423,-0.049l0.423,-0.05l0.419,-0.051l0.426,-0.053l1.729,0.031l1.651,0.512l1.444,0.952l1.122,1.316l0.711,1.576l0.243,1.712l0,43.776l-0.231,1.669l-0.676,1.543l-1.069,1.302l-1.382,0.963l-1.592,0.551l-1.682,0.098l-1.335,-0.106l-1.307,-0.102l-0.643,-0.05l-0.638,-0.049l-0.632,-0.049l-0.627,-0.047l-0.622,-0.046l-0.616,-0.046l-0.611,-0.045l-0.605,-0.044l-0.601,-0.043l-0.595,-0.042l-0.592,-0.041l-0.586,-0.041l-0.582,-0.04l-0.578,-0.039l-0.572,-0.038l-0.57,-0.037l-0.565,-0.036l-0.561,-0.035l-0.558,-0.035l-0.554,-0.034l-0.55,-0.033l-0.547,-0.032l-0.544,-0.031l-0.541,-0.03l-0.537,-0.03l-0.536,-0.029l-0.532,-0.027l-0.529,-0.027l-0.527,-0.027l-0.525,-0.025l-0.523,-0.024l-0.52,-0.024l-0.519,-0.023l-0.517,-0.022l-0.515,-0.021l-0.513,-0.02l-0.512,-0.02l-0.511,-0.018l-0.51,-0.018l-0.508,-0.017l-0.508,-0.016l-0.507,-0.016l-0.506,-0.014l-0.506,-0.014l-0.505,-0.013l-0.505,-0.012l-0.506,-0.011l-0.505,-0.01l-0.505,-0.01l-0.506,-0.008l-0.505,-0.008l-0.507,-0.007l-0.507,-0.006l-0.508,-0.006l-0.509,-0.004l-0.511,-0.004l-0.511,-0.003l-0.513,-0.002l-0.514,-0.001l-0.518,-0.001l-43.739,0l-0.004,0.807l-0.039,0.261l-0.037,0.253l-0.036,0.252l-0.035,0.251l-0.034,0.25l-0.034,0.249l-0.033,0.25l-0.032,0.248l-0.031,0.249l-0.031,0.249l-0.03,0.249l-0.029,0.249l-0.028,0.249l-0.028,0.25l-0.027,0.25l-0.026,0.252l-0.026,0.251l-0.025,0.253l-0.024,0.254l-0.023,0.256l-0.023,0.256l-0.023,0.258l-0.021,0.26l-0.021,0.261l-0.021,0.264l-0.02,0.265l-0.019,0.267l-0.019,0.27l-0.018,0.272l-0.017,0.274l-0.017,0.277l-0.016,0.28l-0.016,0.282l-0.015,0.286l-0.014,0.288l-0.014,0.291l-0.014,0.295l-0.013,0.299l-0.012,0.301l-0.012,0.305l-0.011,0.309l-0.011,0.313l-0.01,0.317l-0.01,0.321l-0.009,0.324l-0.008,0.33l-0.009,0.333l-0.007,0.338l-0.007,0.342l-0.007,0.348l-0.006,0.352l-0.006,0.356l-0.005,0.362l-0.004,0.367l-0.005,0.372l-0.003,0.377l-0.004,0.382l-0.002,0.389l-0.003,0.393l-0.002,0.399l-0.001,0.405l-0.001,0.411l-0.001,0.417l0,0.425l0,3.645l39.357,0l0.707,-0.001l0.701,-0.001l0.695,-0.002l0.691,-0.003l0.686,-0.004l0.68,-0.004l0.676,-0.006l0.672,-0.006l0.667,-0.007l0.662,-0.008l0.657,-0.009l0.654,-0.009l0.648,-0.011l0.645,-0.011l0.64,-0.012l0.636,-0.013l0.632,-0.014l0.628,-0.014l0.624,-0.016l0.621,-0.016l0.616,-0.017l0.612,-0.018l0.609,-0.018l0.605,-0.02l0.602,-0.02l0.598,-0.021l0.595,-0.022l0.591,-0.023l0.588,-0.024l0.585,-0.024l0.582,-0.026l0.578,-0.026l0.576,-0.027l0.573,-0.028l0.569,-0.028l0.567,-0.029l0.564,-0.031l0.561,-0.031l0.559,-0.032l0.557,-0.032l0.553,-0.034l0.552,-0.034l0.549,-0.035l0.547,-0.036l0.545,-0.037l0.542,-0.038l0.54,-0.038l0.539,-0.04l0.536,-0.04l0.535,-0.041l0.533,-0.041l0.531,-0.043l0.53,-0.043l0.528,-0.045l0.526,-0.045l0.526,-0.045l0.524,-0.047l0.522,-0.048l0.521,-0.048l0.52,-0.049l0.519,-0.05l0.518,-0.051l0.518,-0.052l0.521,-0.053l1.706,0.065l1.622,0.532l1.413,0.957l1.096,1.309l0.693,1.561l0.237,1.69l0,43.488l-0.237,1.688l-0.691,1.558l-1.092,1.309l-1.41,0.958l-1.619,0.534l-1.703,0.068l-0.535,-0.053l-0.531,-0.051l-0.531,-0.051l-0.532,-0.05l-0.532,-0.05l-0.533,-0.048l-0.533,-0.048l-0.535,-0.047l-0.535,-0.046l-0.536,-0.045l-0.537,-0.044l-0.537,-0.043l-0.539,-0.043l-0.54,-0.042l-0.54,-0.041l-0.542,-0.04l-0.543,-0.039l-0.544,-0.039l-0.546,-0.038l-0.547,-0.036l-0.547,-0.036l-0.55,-0.036l-0.551,-0.034l-0.553,-0.034l-0.554,-0.032l-0.556,-0.032l-0.557,-0.031l-0.559,-0.031l-0.561,-0.029l-0.562,-0.029l-0.564,-0.027l-0.567,-0.027l-0.568,-0.026l-0.57,-0.026l-0.572,-0.024l-0.575,-0.024l-0.576,-0.023l-0.579,-0.022l-0.581,-0.021l-0.583,-0.02l-0.585,-0.02l-0.588,-0.018l-0.59,-0.018l-0.593,-0.017l-0.595,-0.016l-0.598,-0.016l-0.6,-0.014l-0.603,-0.014l-0.606,-0.013l-0.608,-0.012l-0.612,-0.011l-0.614,-0.011l-0.617,-0.009l-0.62,-0.009l-0.623,-0.008l-0.626,-0.007l-0.629,-0.006l-0.632,-0.006l-0.635,-0.004l-0.639,-0.004l-0.642,-0.003l-0.645,-0.002l-0.649,-0.001l-0.654,-0.001l-18.858,0l0.103,0.167l0.195,0.313l0.196,0.314l0.197,0.313l0.198,0.312l0.2,0.314l0.2,0.312l0.202,0.313l0.203,0.313l0.204,0.313l0.205,0.312l0.206,0.312l0.207,0.313l0.208,0.312l0.21,0.312l0.21,0.312l0.212,0.312l0.213,0.312l0.214,0.311l0.215,0.312l0.217,0.312l0.217,0.311l0.218,0.311l0.22,0.311l0.22,0.311l0.222,0.311l0.223,0.311l0.224,0.31l0.225,0.31l0.226,0.311l0.227,0.31l0.229,0.31l0.229,0.31l0.231,0.31l0.231,0.309l0.233,0.31l0.234,0.309l0.235,0.309l0.235,0.309l0.237,0.308l0.239,0.309l0.239,0.309l0.24,0.308l0.241,0.308l0.243,0.308l0.243,0.308l0.245,0.307l0.245,0.308l0.246,0.307l0.248,0.307l0.249,0.307l0.25,0.306l0.251,0.307l0.252,0.306l0.252,0.306l0.255,0.306l0.255,0.306l0.255,0.305l0.258,0.305l0.258,0.306l0.259,0.304l0.26,0.305l0.262,0.304l0.262,0.304l0.263,0.304l0.264,0.304l0.266,0.304l0.266,0.303l0.268,0.303l0.268,0.303l0.27,0.302l0.27,0.303l0.272,0.302l0.272,0.302l0.274,0.301l0.274,0.301l0.276,0.302l0.276,0.3l0.278,0.301l0.278,0.3l0.28,0.301l0.281,0.299l0.281,0.3l0.283,0.299l0.283,0.299l0.285,0.299l0.285,0.298l0.286,0.298l0.288,0.298l0.289,0.298l0.289,0.298l0.29,0.297l0.292,0.296l0.292,0.297l0.294,0.296l0.294,0.296l0.295,0.296l0.297,0.295l0.297,0.295l0.298,0.295l0.299,0.294l0.3,0.294l0.301,0.294l0.302,0.294l0.303,0.293l0.304,0.293l0.305,0.292l0.306,0.292l0.306,0.292l0.308,0.292l0.309,0.291l0.309,0.291l0.311,0.29l0.311,0.291l0.313,0.29l0.313,0.289l0.314,0.29l0.316,0.289l0.316,0.288l0.317,0.288l0.318,0.288l0.318,0.287l0.32,0.288l0.321,0.286l0.322,0.287l0.322,0.286l0.324,0.286l0.324,0.285l0.325,0.285l0.327,0.285l0.327,0.284l0.327,0.284l0.329,0.283l0.33,0.283l0.33,0.283l0.332,0.282l0.333,0.282l0.333,0.282l0.334,0.281l0.335,0.28l0.336,0.281l0.337,0.28l0.338,0.28l0.338,0.278l0.34,0.279l0.34,0.279l0.341,0.278l0.342,0.277l0.344,0.277l0.344,0.277l0.344,0.276l0.345,0.276l0.347,0.276l0.347,0.275l0.348,0.274l0.349,0.274l0.35,0.274l0.351,0.273l0.351,0.273l0.353,0.273l0.353,0.272l0.354,0.271l0.355,0.271l0.355,0.271l0.357,0.27l0.358,0.27l0.358,0.269l0.358,0.269l0.361,0.269l0.36,0.267l0.362,0.268l0.362,0.267l0.363,0.267l0.364,0.266l0.365,0.265l0.365,0.265l0.367,0.265l0.367,0.264l0.368,0.264l0.369,0.263l0.369,0.263l0.371,0.262l0.371,0.262l0.372,0.261l0.373,0.261l0.374,0.26l0.374,0.26l0.375,0.259l0.376,0.259l0.377,0.258l0.377,0.258l0.379,0.257l0.379,0.257l0.38,0.256l0.38,0.256l0.381,0.255l0.383,0.255l0.383,0.254l0.383,0.254l0.385,0.253l0.385,0.253l0.386,0.252l0.387,0.251l0.387,0.251l0.389,0.251l0.389,0.25l0.389,0.249l0.391,0.249l0.391,0.248l0.392,0.248l0.393,0.248l0.394,0.246l0.394,0.246l0.394,0.246l0.396,0.245l0.397,0.244l0.397,0.244l0.398,0.244l0.398,0.242l0.4,0.243l0.399,0.241l0.401,0.241l0.402,0.241l0.402,0.24l0.403,0.239l0.404,0.239l0.404,0.238l0.41,0.24l1.337,1.059l0.995,1.386l0.575,1.606l0.112,1.702l-0.36,1.667l-0.805,1.504l-0.253,0.347l-0.25,0.343l-0.247,0.341l-0.245,0.337l-0.243,0.337l-0.242,0.334l-0.238,0.332l-0.237,0.33l-0.235,0.328l-0.234,0.327l-0.231,0.325l-0.229,0.323l-0.227,0.321l-0.226,0.319l-0.224,0.318l-0.221,0.316l-0.221,0.315l-0.218,0.312l-0.216,0.312l-0.216,0.311l-0.213,0.308l-0.211,0.307l-0.21,0.306l-0.209,0.305l-0.207,0.304l-0.205,0.302l-0.204,0.301l-0.203,0.3l-0.201,0.299l-0.199,0.298l-0.198,0.297l-0.197,0.296l-0.195,0.295l-0.195,0.295l-0.193,0.294l-0.191,0.292l-0.191,0.292l-0.189,0.292l-0.188,0.291l-0.187,0.29l-0.186,0.289l-0.184,0.29l-0.184,0.288l-0.183,0.289l-0.181,0.288l-0.181,0.287l-0.18,0.288l-0.179,0.287l-0.178,0.287l-0.177,0.287l-0.176,0.286l-0.175,0.287l-0.175,0.287l-0.174,0.287l-0.173,0.287l-0.173,0.286l-0.171,0.287l-0.172,0.288l-0.17,0.288l-0.171,0.288l-0.169,0.288l-0.169,0.289l-0.168,0.289l-0.168,0.29l-0.168,0.29l-0.167,0.291l-0.167,0.292l-0.167,0.292l-0.166,0.293l-0.166,0.294l-0.165,0.294l-0.166,0.296l-0.165,0.296l-0.165,0.297l-0.165,0.299l-0.164,0.299l-0.165,0.301l-0.164,0.301l-0.165,0.303l-0.164,0.304l-0.164,0.305l-0.165,0.307l-0.164,0.308l-0.165,0.309l-0.165,0.311l-0.164,0.313l-0.166,0.314l-0.165,0.315l-0.165,0.317l-0.166,0.319l-0.166,0.32l-0.166,0.323l-0.166,0.324l-0.167,0.326l-0.167,0.327l-0.168,0.33l-0.168,0.332l-0.169,0.334l-0.168,0.335l-0.17,0.338l-0.17,0.34l-0.17,0.342l-0.172,0.345l-0.171,0.347l-0.172,0.348l-0.173,0.352l-0.174,0.354l-0.174,0.356l-0.175,0.358l-0.176,0.361l-0.177,0.364l-0.177,0.367l-0.178,0.368l-0.179,0.372l-0.18,0.374l-0.181,0.376l-0.365,0.764l-0.368,0.774l-0.372,0.786l-0.377,0.799l-0.381,0.81l-0.388,0.828l-0.822,1.3l-1.119,1.055l-1.346,0.745l-1.489,0.387l-1.538,0.005l-1.491,-0.378l-1.351,-0.735l-0.387,-0.279l-0.39,-0.282l-0.389,-0.281l-0.387,-0.281l-0.386,-0.282l-0.385,-0.281l-0.384,-0.281l-0.384,-0.281l-0.382,-0.282l-0.38,-0.281l-0.381,-0.281l-0.378,-0.282l-0.378,-0.281l-0.377,-0.281l-0.376,-0.281l-0.374,-0.282l-0.374,-0.281l-0.373,-0.282l-0.371,-0.281l-0.371,-0.282l-0.37,-0.281l-0.368,-0.282l-0.368,-0.282l-0.366,-0.282l-0.366,-0.281l-0.364,-0.282l-0.364,-0.282l-0.362,-0.282l-0.362,-0.282l-0.36,-0.282l-0.36,-0.283l-0.359,-0.282l-0.357,-0.282l-0.357,-0.283l-0.355,-0.282l-0.355,-0.283l-0.354,-0.283l-0.352,-0.283l-0.352,-0.283l-0.351,-0.282l-0.349,-0.284l-0.349,-0.283l-0.348,-0.283l-0.347,-0.284l-0.346,-0.284l-0.345,-0.283l-0.344,-0.284l-0.343,-0.284l-0.342,-0.285l-0.341,-0.284l-0.341,-0.284l-0.339,-0.285l-0.339,-0.285l-0.337,-0.285l-0.337,-0.285l-0.336,-0.285l-0.334,-0.285l-0.334,-0.286l-0.333,-0.286l-0.332,-0.285l-0.331,-0.286l-0.33,-0.287l-0.33,-0.286l-0.328,-0.287l-0.327,-0.286l-0.327,-0.287l-0.326,-0.288l-0.325,-0.287l-0.324,-0.287l-0.323,-0.288l-0.322,-0.288l-0.321,-0.288l-0.321,-0.289l-0.319,-0.289l-0.319,-0.288l-0.318,-0.289l-0.317,-0.29l-0.316,-0.289l-0.315,-0.29l-0.315,-0.29l-0.313,-0.29l-0.313,-0.29l-0.312,-0.291l-0.311,-0.291l-0.31,-0.291l-0.309,-0.292l-0.309,-0.291l-0.307,-0.292l-0.307,-0.292l-0.306,-0.293l-0.306,-0.293l-0.304,-0.293l-0.304,-0.293l-0.302,-0.294l-0.302,-0.293l-0.301,-0.295l-0.301,-0.294l-0.299,-0.295l-0.298,-0.294l-0.298,-0.296l-0.298,-0.295l-0.296,-0.296l-0.295,-0.296l-0.295,-0.297l-0.294,-0.297l-0.293,-0.297l-0.293,-0.297l-0.291,-0.298l-0.291,-0.298l-0.29,-0.298l-0.289,-0.299l-0.289,-0.299l-0.287,-0.299l-0.288,-0.3l-0.286,-0.3l-0.285,-0.3l-0.285,-0.301l-0.284,-0.302l-0.283,-0.301l-0.283,-0.302l-0.281,-0.302l-0.281,-0.302l-0.281,-0.303l-0.279,-0.303l-0.279,-0.304l-0.278,-0.304l-0.277,-0.304l-0.277,-0.305l-0.275,-0.305l-0.276,-0.306l-0.274,-0.305l-0.274,-0.306l-0.273,-0.307l-0.272,-0.307l-0.272,-0.308l-0.271,-0.308l-0.27,-0.308l-0.269,-0.308l-0.269,-0.309l-0.268,-0.31l-0.268,-0.31l-0.266,-0.31l-0.266,-0.31l-0.266,-0.312l-0.264,-0.311l-0.265,-0.312l-0.263,-0.312l-0.262,-0.313l-0.263,-0.314l-0.261,-0.313l-0.261,-0.314l-0.26,-0.315l-0.259,-0.315l-0.259,-0.315l-0.258,-0.316l-0.257,-0.317l-0.257,-0.317l-0.256,-0.317l-0.255,-0.318l-0.255,-0.318l-0.255,-0.319l-0.253,-0.319l-0.253,-0.319l-0.252,-0.32l-0.252,-0.321l-0.251,-0.321l-0.251,-0.322l-0.25,-0.322l-0.249,-0.322l-0.248,-0.323l-0.248,-0.324l-0.248,-0.324l-0.247,-0.324l-0.246,-0.326l-0.246,-0.325l-0.244,-0.326l-0.245,-0.326l-0.244,-0.328l-0.243,-0.327l-0.243,-0.328l-0.242,-0.329l-0.241,-0.329l-0.241,-0.33l-0.241,-0.33l-0.24,-0.331l-0.239,-0.331l-0.239,-0.332l-0.238,-0.332l-0.237,-0.333l-0.237,-0.334l-0.237,-0.334l-0.236,-0.334l-0.235,-0.336l-0.235,-0.336l-0.235,-0.336l-0.233,-0.336l-0.234,-0.338l-0.232,-0.338l-0.232,-0.338l-0.072,-0.105l0,41.031l0,0.506l0.001,0.5l0.001,0.495l0.001,0.49l0.002,0.485l0.003,0.48l0.003,0.476l0.004,0.471l0.004,0.466l0.005,0.463l0.005,0.458l0.006,0.454l0.007,0.451l0.007,0.446l0.008,0.443l0.009,0.44l0.009,0.436l0.011,0.433l0.01,0.431l0.012,0.427l0.013,0.424l0.013,0.422l0.014,0.419l0.015,0.416l0.015,0.415l0.017,0.413l0.018,0.41l0.018,0.409l0.019,0.407l0.021,0.406l0.021,0.404l0.022,0.403l0.023,0.402l0.025,0.401l0.025,0.4l0.026,0.399l0.028,0.399l0.028,0.399l0.03,0.398l0.03,0.399l0.032,0.398l0.033,0.399l0.035,0.399l0.035,0.4l0.037,0.401l0.038,0.401l0.039,0.402l0.041,0.404l0.041,0.404l0.044,0.406l0.044,0.408l0.046,0.41l0.048,0.411l0.048,0.414l0.051,0.415l0.052,0.418l0.053,0.421l0.055,0.423l0.056,0.426l0.058,0.428l0.059,0.432l0.061,0.435l0.063,0.438l0.066,0.45l0.003,1.751l-0.491,1.681l-0.945,1.474l-1.323,1.148l-1.592,0.728l-1.734,0.249l-46.08,0l-1.724,-0.247l-1.586,-0.721l-1.32,-1.137l-0.948,-1.462l-0.499,-1.67l-0.011,-1.742l0.053,-0.385l0.051,-0.38l0.05,-0.377l0.05,-0.377l0.048,-0.377l0.048,-0.376l0.047,-0.375l0.046,-0.375l0.046,-0.375l0.044,-0.375l0.043,-0.374l0.043,-0.375l0.042,-0.375l0.041,-0.376l0.041,-0.375l0.039,-0.376l0.039,-0.377l0.037,-0.377l0.037,-0.379l0.036,-0.379l0.036,-0.38l0.034,-0.382l0.034,-0.383l0.033,-0.384l0.032,-0.385l0.031,-0.388l0.031,-0.389l0.029,-0.391l0.029,-0.393l0.028,-0.395l0.028,-0.396l0.026,-0.4l0.026,-0.402l0.025,-0.404l0.024,-0.407l0.023,-0.409l0.022,-0.412l0.022,-0.416l0.021,-0.418l0.02,-0.421l0.019,-0.425l0.018,-0.428l0.018,-0.431l0.017,-0.435l0.016,-0.439l0.015,-0.442l0.014,-0.447l0.014,-0.45l0.012,-0.454l0.012,-0.459l0.011,-0.462l0.011,-0.468l0.009,-0.471l0.009,-0.477l0.008,-0.48l0.007,-0.486l0.006,-0.491l0.005,-0.495l0.005,-0.501l0.004,-0.506l0.002,-0.511l0.003,-0.516l0.001,-0.522l0,-0.53l0,-40.988l-0.14,0.211l-0.228,0.342l-0.229,0.341l-0.229,0.34l-0.23,0.34l-0.231,0.339l-0.231,0.339l-0.232,0.337l-0.232,0.338l-0.234,0.336l-0.234,0.336l-0.234,0.336l-0.235,0.335l-0.236,0.334l-0.236,0.333l-0.237,0.333l-0.238,0.333l-0.238,0.332l-0.239,0.331l-0.24,0.33l-0.24,0.33l-0.241,0.329l-0.242,0.329l-0.242,0.328l-0.243,0.327l-0.243,0.327l-0.244,0.326l-0.245,0.326l-0.245,0.325l-0.246,0.324l-0.247,0.324l-0.247,0.323l-0.248,0.323l-0.249,0.322l-0.249,0.321l-0.25,0.32l-0.251,0.32l-0.251,0.32l-0.252,0.319l-0.252,0.318l-0.253,0.317l-0.254,0.318l-0.255,0.316l-0.255,0.315l-0.256,0.316l-0.256,0.314l-0.257,0.314l-0.258,0.313l-0.258,0.313l-0.259,0.312l-0.26,0.311l-0.26,0.311l-0.261,0.31l-0.262,0.31l-0.262,0.309l-0.263,0.308l-0.264,0.308l-0.264,0.307l-0.264,0.307l-0.266,0.306l-0.266,0.305l-0.267,0.305l-0.268,0.304l-0.268,0.303l-0.269,0.303l-0.269,0.302l-0.27,0.302l-0.271,0.301l-0.271,0.3l-0.273,0.3l-0.272,0.299l-0.274,0.299l-0.274,0.298l-0.274,0.297l-0.276,0.297l-0.276,0.296l-0.277,0.296l-0.277,0.295l-0.278,0.294l-0.278,0.293l-0.28,0.294l-0.28,0.292l-0.28,0.292l-0.282,0.291l-0.282,0.291l-0.282,0.29l-0.284,0.289l-0.284,0.289l-0.284,0.288l-0.285,0.288l-0.287,0.287l-0.286,0.286l-0.287,0.286l-0.288,0.285l-0.289,0.285l-0.289,0.283l-0.29,0.284l-0.291,0.282l-0.291,0.282l-0.292,0.282l-0.292,0.281l-0.293,0.28l-0.294,0.28l-0.295,0.279l-0.295,0.278l-0.296,0.278l-0.296,0.277l-0.298,0.277l-0.298,0.276l-0.298,0.276l-0.299,0.274l-0.3,0.274l-0.301,0.274l-0.301,0.273l-0.302,0.272l-0.302,0.272l-0.304,0.271l-0.304,0.271l-0.304,0.27l-0.305,0.269l-0.306,0.269l-0.307,0.268l-0.307,0.268l-0.308,0.267l-0.308,0.266l-0.309,0.266l-0.311,0.265l-0.31,0.264l-0.311,0.264l-0.312,0.264l-0.313,0.262l-0.313,0.263l-0.314,0.261l-0.315,0.261l-0.315,0.26l-0.316,0.26l-0.316,0.259l-0.318,0.259l-0.317,0.257l-0.319,0.258l-0.319,0.256l-0.32,0.257l-0.321,0.255l-0.321,0.255l-0.322,0.254l-0.323,0.254l-0.323,0.253l-0.324,0.253l-0.325,0.252l-0.325,0.251l-0.326,0.251l-0.327,0.25l-0.327,0.249l-0.328,0.249l-0.329,0.249l-0.329,0.247l-0.33,0.247l-0.331,0.247l-0.331,0.246l-0.333,0.245l-0.332,0.245l-0.334,0.244l-0.334,0.244l-0.335,0.243l-0.335,0.242l-0.336,0.241l-0.337,0.242l-0.338,0.24l-0.338,0.24l-0.338,0.24l-0.34,0.239l-0.34,0.238l-0.341,0.237l-0.342,0.237l-0.342,0.237l-0.343,0.236l-0.343,0.235l-0.345,0.234l-0.345,0.235l-0.345,0.233l-0.347,0.233l-0.347,0.232l-0.347,0.232l-0.349,0.231l-0.349,0.23l-0.35,0.231l-0.35,0.229l-0.351,0.228l-0.352,0.229l-0.352,0.227l-0.353,0.227l-0.354,0.227l-0.355,0.226l-0.354,0.225l-0.356,0.224l-0.357,0.224l-0.357,0.224l-0.353,0.22l-1.584,0.699l-1.716,0.229l-1.712,-0.258l-1.572,-0.725l-1.307,-1.136l-0.939,-1.454l-0.307,-0.666l-0.301,-0.651l-0.297,-0.641l-0.294,-0.631l-0.291,-0.62l-0.287,-0.61l-0.284,-0.601l-0.281,-0.591l-0.28,-0.584l-0.137,-0.285l-0.138,-0.286l-0.137,-0.283l-0.136,-0.282l-0.136,-0.279l-0.135,-0.277l-0.135,-0.275l-0.134,-0.272l-0.134,-0.272l-0.133,-0.269l-0.133,-0.267l-0.132,-0.265l-0.132,-0.263l-0.131,-0.262l-0.132,-0.26l-0.13,-0.258l-0.131,-0.256l-0.13,-0.255l-0.13,-0.253l-0.13,-0.251l-0.129,-0.25l-0.129,-0.248l-0.129,-0.247l-0.129,-0.246l-0.129,-0.244l-0.129,-0.242l-0.128,-0.241l-0.128,-0.24l-0.129,-0.238l-0.128,-0.238l-0.128,-0.236l-0.128,-0.235l-0.129,-0.234l-0.128,-0.232l-0.128,-0.231l-0.129,-0.231l-0.128,-0.229l-0.129,-0.229l-0.129,-0.228l-0.129,-0.226l-0.129,-0.226l-0.13,-0.225l-0.129,-0.224l-0.13,-0.223l-0.131,-0.223l-0.131,-0.223l-0.131,-0.221l-0.131,-0.221l-0.132,-0.22l-0.132,-0.22l-0.133,-0.219l-0.133,-0.219l-0.133,-0.219l-0.134,-0.218l-0.135,-0.217l-0.135,-0.218l-0.136,-0.217l-0.137,-0.217l-0.137,-0.217l-0.138,-0.217l-0.138,-0.217l-0.14,-0.216l-0.139,-0.216l-0.141,-0.217l-0.142,-0.217l-0.142,-0.217l-0.143,-0.216l-0.04,-0.06l-0.002,0.006l-0.13,0.418l-0.13,0.415l-0.131,0.414l-0.131,0.412l-0.131,0.411l-0.132,0.408l-0.132,0.407l-0.133,0.406l-0.133,0.404l-0.133,0.402l-0.134,0.401l-0.134,0.399l-0.135,0.398l-0.135,0.397l-0.136,0.396l-0.137,0.394l-0.137,0.393l-0.137,0.392l-0.138,0.39l-0.139,0.39l-0.14,0.388l-0.14,0.388l-0.14,0.386l-0.142,0.386l-0.142,0.385l-0.143,0.384l-0.144,0.383l-0.144,0.382l-0.145,0.382l-0.146,0.38l-0.147,0.38l-0.148,0.38l-0.148,0.379l-0.149,0.379l-0.151,0.378l-0.151,0.377l-0.152,0.377l-0.153,0.377l-0.154,0.376l-0.155,0.377l-0.156,0.375l-0.157,0.376l-0.157,0.375l-0.159,0.376l-0.16,0.375l-0.161,0.375l-0.163,0.375l-0.163,0.375l-0.164,0.376l-0.166,0.375l-0.166,0.376l-0.168,0.375l-0.169,0.376l-0.17,0.377l-0.172,0.376l-0.172,0.377l-0.174,0.377l-0.176,0.378l-0.176,0.378l-0.178,0.378l-0.179,0.38l-0.18,0.38l-0.182,0.38l-0.183,0.381l-0.184,0.382l-0.186,0.383l-0.187,0.383l-0.189,0.384l-0.19,0.385l-0.192,0.387l-0.193,0.387l-0.195,0.388l-0.196,0.389l-0.197,0.39l-0.199,0.392l-0.201,0.392l-0.203,0.394l-0.203,0.396l-0.206,0.396l-0.207,0.398l-0.209,0.399l-0.21,0.401l-0.212,0.402l-0.214,0.404l-0.216,0.406l-0.217,0.407l-0.219,0.409l-0.221,0.41l-0.223,0.412l-0.224,0.415l-0.227,0.416l-0.228,0.417l-0.23,0.42l-0.232,0.422l-0.234,0.424l-0.235,0.426l-0.238,0.429l-0.24,0.43l-0.241,0.433l-0.244,0.435l-0.244,0.434l-1.052,1.375l-1.395,1.028l-1.626,0.597l-1.729,0.119l-1.693,-0.367l-1.523,-0.825l-1.232,-1.218l-0.274,-0.361l-0.271,-0.355l-0.27,-0.354l-0.269,-0.351l-0.268,-0.349l-0.267,-0.348l-0.267,-0.345l-0.265,-0.343l-0.265,-0.341l-0.263,-0.339l-0.263,-0.338l-0.262,-0.335l-0.261,-0.333l-0.261,-0.331l-0.26,-0.33l-0.259,-0.327l-0.258,-0.326l-0.257,-0.323l-0.257,-0.323l-0.257,-0.32l-0.255,-0.318l-0.255,-0.317l-0.254,-0.315l-0.254,-0.313l-0.254,-0.312l-0.252,-0.31l-0.252,-0.308l-0.252,-0.307l-0.251,-0.305l-0.251,-0.304l-0.25,-0.302l-0.25,-0.3l-0.249,-0.299l-0.249,-0.298l-0.248,-0.296l-0.249,-0.294l-0.248,-0.293l-0.247,-0.292l-0.247,-0.29l-0.247,-0.289l-0.247,-0.288l-0.247,-0.287l-0.246,-0.285l-0.246,-0.283l-0.246,-0.283l-0.246,-0.281l-0.245,-0.281l-0.246,-0.279l-0.245,-0.277l-0.246,-0.277l-0.245,-0.276l-0.245,-0.274l-0.245,-0.274l-0.246,-0.272l-0.245,-0.272l-0.245,-0.27l-0.246,-0.269l-0.245,-0.269l-0.246,-0.267l-0.245,-0.267l-0.246,-0.266l-0.246,-0.265l-0.246,-0.264l-0.247,-0.263l-0.246,-0.262l-0.247,-0.262l-0.248,-0.261l-0.247,-0.26l-0.248,-0.26l-0.248,-0.259l-0.248,-0.258l-0.249,-0.258l-0.25,-0.257l-0.249,-0.256l-0.25,-0.255l-0.251,-0.256l-0.251,-0.255l-0.252,-0.254l-0.252,-0.254l-0.252,-0.253l-0.253,-0.253l-0.254,-0.253l-0.255,-0.252l-0.255,-0.251l-0.255,-0.252l-0.257,-0.251l-0.257,-0.251l-0.257,-0.25l-0.259,-0.251l-0.259,-0.25l-0.26,-0.25l-0.261,-0.249l-0.262,-0.25l-0.263,-0.249l-0.263,-0.25l-0.264,-0.249l-0.265,-0.249l-0.266,-0.249l-0.267,-0.249l-0.268,-0.249l-0.269,-0.249l-0.27,-0.249l-0.271,-0.249l-0.272,-0.249l-0.273,-0.25l-0.275,-0.249l-0.275,-0.25l-0.276,-0.25l-0.278,-0.25l-0.279,-0.249l-0.28,-0.251l-0.281,-0.251l-0.282,-0.25l-0.284,-0.252l-0.285,-0.251l-0.286,-0.252l-0.288,-0.252l-0.289,-0.253l-0.29,-0.253l-0.292,-0.254l-0.293,-0.253l-0.294,-0.255l-0.296,-0.254l-0.297,-0.256l-0.299,-0.256l-0.3,-0.256l-0.302,-0.257l-0.306,-0.26l-1.123,-1.256l-0.74,-1.513l-0.3,-1.658l0.16,-1.677l0.61,-1.57l0.222,-0.398l0.217,-0.392l0.215,-0.391l0.214,-0.392l0.213,-0.391l0.211,-0.391l0.21,-0.391l0.209,-0.392l0.207,-0.391l0.206,-0.391l0.205,-0.391l0.203,-0.392l0.203,-0.391l0.2,-0.392l0.2,-0.392l0.198,-0.392l0.197,-0.392l0.196,-0.393l0.194,-0.393l0.193,-0.393l0.192,-0.393l0.191,-0.394l0.189,-0.394l0.189,-0.395l0.187,-0.395l0.186,-0.396l0.184,-0.396l0.183,-0.397l0.182,-0.397l0.181,-0.398l0.18,-0.398l0.179,-0.399l0.177,-0.4l0.176,-0.4l0.175,-0.401l0.174,-0.402l0.172,-0.403l0.172,-0.403l0.17,-0.405l0.169,-0.405l0.168,-0.406l0.167,-0.407l0.166,-0.408l0.165,-0.409l0.163,-0.41l0.163,-0.411l0.161,-0.412l0.16,-0.413l0.159,-0.414l0.158,-0.416l0.157,-0.417l0.156,-0.417l0.154,-0.419l0.154,-0.421l0.153,-0.421l0.151,-0.423l0.151,-0.424l0.149,-0.426l0.148,-0.427l0.147,-0.428l0.147,-0.43l0.145,-0.432l0.144,-0.433l0.143,-0.434l0.142,-0.436l0.141,-0.438l0.14,-0.439l0.139,-0.441l0.138,-0.442l0.137,-0.445l0.136,-0.446l0.135,-0.447l0.134,-0.45l0.133,-0.452l0.132,-0.453l0.131,-0.455l0.13,-0.457l0.129,-0.459l0.128,-0.461l0.127,-0.463l0.126,-0.465l0.126,-0.467l0.124,-0.469l0.123,-0.471l0.122,-0.473l0.122,-0.476l0.12,-0.477l0.119,-0.48l0.119,-0.482l0.117,-0.484l0.117,-0.487l0.116,-0.489l0.114,-0.491l0.114,-0.494l0.113,-0.495l0.112,-0.499l0.111,-0.501l0.11,-0.503l0.109,-0.506l0.108,-0.508l0.108,-0.511l0.106,-0.513l0.106,-0.516l0.105,-0.519l0.103,-0.521l0.103,-0.524l0.102,-0.527l0.101,-0.53l0.1,-0.532l0.1,-0.535l0.098,-0.538l0.098,-0.54l0.096,-0.544l0.096,-0.546l0.095,-0.549l0.094,-0.553l0.093,-0.555l0.092,-0.558l0.092,-0.561l0.09,-0.564l0.09,-0.568l0.089,-0.57l0.088,-0.573l0.087,-0.577l0.087,-0.58l0.085,-0.583l0.085,-0.586l0.083,-0.589l0.083,-0.593l0.082,-0.596l0.082,-0.599l0.08,-0.603l0.08,-0.606l0.079,-0.609l0.078,-0.613l0.077,-0.616l0.076,-0.62l0.076,-0.623l0.074,-0.626l0.074,-0.631l0.073,-0.633l0.073,-0.638l0.071,-0.641l0.071,-0.644l0.07,-0.648l0.069,-0.652l0.068,-0.656l0.068,-0.659l0.067,-0.663l0.066,-0.667l0.065,-0.67l0.064,-0.675l0.064,-0.678l0.063,-0.682l0.062,-0.686l0.061,-0.69l0.061,-0.694l0.06,-0.698l0.059,-0.702l0.058,-0.706l0.058,-0.71l0.056,-0.714l0.056,-0.718l0.056,-0.722l0.054,-0.726l0.054,-0.731l0.053,-0.734l0.053,-0.739l0.051,-0.743l0.051,-0.748l0.05,-0.751l0.05,-0.756l0.049,-0.76l0.048,-0.765l0.047,-0.769l0.047,-0.773l0.046,-0.778l0.045,-0.782l0.044,-0.787l0.044,-0.791l0.043,-0.796l0.043,-0.8l0.042,-0.805l0.041,-0.809l0.04,-0.814l0.04,-0.819l0.039,-0.823l0.038,-0.828l0.038,-0.833l0.037,-0.838l0.036,-0.842l0.036,-0.847l0.035,-0.852l0.034,-0.856l0.034,-0.862l0.033,-0.866l0.033,-0.871l0.032,-0.876l0.031,-0.882l0.03,-0.886l0.03,-0.891l0.03,-0.896l0.028,-0.901l0.028,-0.906l0.028,-0.911l0.027,-0.917l0.026,-0.921l0.025,-0.927l0.025,-0.932l0.025,-0.937l0.024,-0.943l0.023,-0.947l0.022,-0.953l0.022,-0.958l0.022,-0.964l0.021,-0.969l0.02,-0.974l0.02,-0.98l0.019,-0.985l0.018,-0.99l0.018,-0.996l0.018,-1.002l0.017,-1.007l0.016,-1.012l0.016,-1.019l0.015,-1.023l0.014,-1.03l0.015,-1.035l0.013,-1.04l0.013,-1.047l0.013,-1.052l0.012,-1.058l0.011,-1.063l0.011,-1.07l0.01,-1.075l0.01,-1.081l0.01,-1.087l0.008,-1.093l0.009,-1.098l0.008,-1.105l0.007,-1.11l0.007,-1.117l0.006,-1.122l0.006,-1.129l0.005,-1.135l0.005,-1.14l0.005,-1.147l0.004,-1.153l0.003,-1.159l0.003,-1.165l0.003,-1.172l0.002,-1.178l0.001,-1.183l0.001,-1.191l0.001,-1.196l0,-1.203l0,-0.895l-0.001,-0.881l-0.001,-0.869l-0.001,-0.855l-0.002,-0.843l-0.003,-0.831l-0.002,-0.818l-0.004,-0.806l-0.004,-0.795l-0.004,-0.784l-0.005,-0.773l-0.005,-0.761l-0.006,-0.751l-0.006,-0.741l-0.007,-0.731l-0.007,-0.721l-0.008,-0.711l-0.008,-0.702l-0.009,-0.693l-0.009,-0.684l-0.01,-0.676l-0.011,-0.667l-0.011,-0.66l-0.011,-0.651l-0.013,-0.645l-0.012,-0.636l-0.014,-0.63l-0.014,-0.624l-0.014,-0.616l-0.015,-0.611l-0.016,-0.604l-0.016,-0.599l-0.017,-0.594l-0.018,-0.588l-0.018,-0.584l-0.019,-0.579l-0.02,-0.574l-0.02,-0.571l-0.021,-0.566l-0.021,-0.564l-0.022,-0.559l-0.023,-0.557l-0.023,-0.554l-0.025,-0.552l-0.025,-0.549l-0.025,-0.548l-0.026,-0.546l-0.028,-0.544l-0.027,-0.544l-0.029,-0.542l-0.029,-0.542l-0.03,-0.541l-0.031,-0.542l-0.031,-0.542l-0.033,-0.542l-0.033,-0.543l-0.033,-0.544l-0.035,-0.545l-0.036,-0.547l-0.036,-0.549l-0.037,-0.551l-0.038,-0.553l-0.039,-0.555l-0.039,-0.562l0.126,-1.747l0.614,-1.641l1.052,-1.4l1.404,-1.047l1.643,-0.608l1.748,-0.12l0.537,0.04l0.536,0.039l0.534,0.04l0.534,0.038l0.534,0.038l0.533,0.038l0.534,0.037l0.533,0.037l0.533,0.036l0.534,0.036l0.534,0.036l0.534,0.034l0.534,0.035l0.535,0.033l0.535,0.034l0.536,0.033l0.537,0.032l0.536,0.032l0.538,0.031l0.539,0.03l0.54,0.03l0.541,0.03l0.542,0.029l0.542,0.028l0.544,0.028l0.546,0.027l0.547,0.027l0.548,0.026l0.55,0.025l0.552,0.025l0.553,0.025l0.555,0.023l0.557,0.023l0.558,0.023l0.561,0.021l0.563,0.021l0.565,0.021l0.567,0.019l0.57,0.02l0.571,0.018l0.575,0.018l0.576,0.017l0.58,0.016l0.582,0.016l0.585,0.015l0.588,0.014l0.59,0.014l0.594,0.013l0.597,0.012l0.599,0.011l0.603,0.011l0.607,0.01l0.61,0.009l0.612,0.008l0.617,0.008l0.62,0.007l0.624,0.006l0.627,0.005l0.632,0.004l0.635,0.004l0.639,0.003l0.643,0.002l0.648,0.001l0.654,0.001l58.652,0l0,-0.203l-0.001,-0.296l-0.001,-0.291l-0.001,-0.288l-0.002,-0.284l-0.003,-0.279l-0.003,-0.275l-0.003,-0.272l-0.004,-0.268l-0.004,-0.264l-0.005,-0.261l-0.005,-0.256l-0.006,-0.254l-0.007,-0.249l-0.007,-0.246l-0.008,-0.243l-0.008,-0.239l-0.008,-0.236l-0.01,-0.233l-0.01,-0.23l-0.01,-0.226l-0.011,-0.224l-0.012,-0.22l-0.012,-0.218l-0.013,-0.215l-0.014,-0.211l-0.014,-0.21l-0.015,-0.206l-0.015,-0.204l-0.016,-0.202l-0.017,-0.199l-0.018,-0.196l-0.018,-0.195l-0.019,-0.192l-0.019,-0.19l-0.02,-0.189l-0.021,-0.186l-0.022,-0.184l-0.022,-0.183l-0.023,-0.181l-0.024,-0.179l-0.024,-0.178l-0.025,-0.177l-0.026,-0.175l-0.027,-0.174l-0.028,-0.173l-0.028,-0.172l-0.029,-0.171l-0.03,-0.17l-0.031,-0.17l-0.032,-0.169l-0.033,-0.168l-0.033,-0.169l-0.035,-0.168l-0.035,-0.167l-0.037,-0.168l-0.037,-0.168l-0.038,-0.167l-0.04,-0.168l-0.04,-0.168l-0.042,-0.169l-0.043,-0.169l-0.043,-0.17l-0.049,-0.186l-0.204,-1.588l0.214,-1.587l0.616,-1.477l0.977,-1.268l1.272,-0.973l1.479,-0.612l1.588,-0.208l47.807,0l1.575,0.205Zm-49.382,5.94l0.053,0.202l0.052,0.202l0.051,0.202l0.05,0.201l0.048,0.202l0.047,0.201l0.046,0.201l0.045,0.201l0.044,0.201l0.042,0.202l0.042,0.202l0.04,0.202l0.039,0.202l0.038,0.203l0.038,0.203l0.036,0.204l0.034,0.205l0.034,0.205l0.033,0.206l0.032,0.207l0.031,0.207l0.03,0.209l0.028,0.21l0.028,0.21l0.027,0.212l0.026,0.214l0.025,0.214l0.025,0.216l0.023,0.217l0.022,0.219l0.022,0.22l0.021,0.222l0.019,0.224l0.019,0.225l0.019,0.227l0.017,0.229l0.016,0.231l0.016,0.233l0.015,0.235l0.015,0.238l0.013,0.239l0.013,0.242l0.012,0.244l0.012,0.247l0.01,0.249l0.01,0.251l0.01,0.254l0.009,0.257l0.008,0.26l0.007,0.262l0.007,0.265l0.006,0.268l0.006,0.272l0.005,0.274l0.005,0.277l0.004,0.281l0.003,0.284l0.003,0.287l0.003,0.291l0.002,0.294l0.002,0.297l0.001,0.302l0,0.304l0.001,0.309l0,6.048l-64.8,0l-0.66,0l-0.655,-0.002l-0.651,-0.002l-0.648,-0.003l-0.643,-0.003l-0.639,-0.005l-0.636,-0.005l-0.632,-0.006l-0.628,-0.007l-0.625,-0.008l-0.621,-0.009l-0.618,-0.009l-0.614,-0.01l-0.611,-0.011l-0.608,-0.011l-0.605,-0.012l-0.602,-0.013l-0.599,-0.014l-0.595,-0.015l-0.593,-0.015l-0.591,-0.016l-0.587,-0.016l-0.585,-0.018l-0.583,-0.018l-0.579,-0.018l-0.578,-0.02l-0.575,-0.02l-0.573,-0.021l-0.571,-0.021l-0.568,-0.022l-0.567,-0.023l-0.564,-0.023l-0.563,-0.024l-0.561,-0.024l-0.559,-0.026l-0.558,-0.025l-0.555,-0.027l-0.555,-0.027l-0.553,-0.027l-0.551,-0.029l-0.55,-0.028l-0.549,-0.03l-0.548,-0.03l-0.546,-0.03l-0.546,-0.031l-0.544,-0.032l-0.544,-0.032l-0.543,-0.032l-0.542,-0.034l-0.542,-0.033l-0.541,-0.034l-0.54,-0.035l-0.54,-0.035l-0.54,-0.036l-0.539,-0.036l-0.539,-0.037l-0.539,-0.037l-0.538,-0.038l-0.539,-0.038l-0.539,-0.038l-0.539,-0.039l-0.539,-0.04l-0.54,-0.04l-0.539,-0.04l0.04,0.566l0.039,0.563l0.038,0.56l0.038,0.558l0.037,0.557l0.036,0.554l0.035,0.553l0.034,0.553l0.034,0.551l0.032,0.55l0.032,0.55l0.032,0.55l0.03,0.551l0.03,0.55l0.029,0.551l0.028,0.553l0.027,0.553l0.027,0.555l0.026,0.556l0.026,0.558l0.024,0.561l0.024,0.563l0.023,0.565l0.023,0.569l0.021,0.572l0.022,0.575l0.02,0.579l0.02,0.583l0.019,0.587l0.018,0.592l0.018,0.597l0.018,0.601l0.016,0.607l0.016,0.612l0.015,0.618l0.015,0.625l0.014,0.63l0.014,0.637l0.012,0.644l0.013,0.651l0.012,0.658l0.011,0.666l0.01,0.674l0.01,0.681l0.01,0.69l0.009,0.699l0.008,0.708l0.008,0.717l0.007,0.726l0.007,0.736l0.006,0.745l0.006,0.756l0.006,0.766l0.004,0.777l0.005,0.788l0.003,0.799l0.004,0.811l0.003,0.822l0.002,0.834l0.002,0.846l0.002,0.859l0.001,0.872l0,0.884l0.001,0.898l-0.001,1.205l0,1.199l-0.002,1.193l-0.001,1.186l-0.002,1.18l-0.003,1.174l-0.003,1.168l-0.003,1.162l-0.004,1.155l-0.004,1.15l-0.005,1.143l-0.006,1.137l-0.006,1.132l-0.006,1.125l-0.007,1.12l-0.007,1.113l-0.008,1.108l-0.008,1.102l-0.009,1.096l-0.01,1.09l-0.01,1.084l-0.01,1.078l-0.011,1.073l-0.011,1.067l-0.012,1.061l-0.013,1.056l-0.013,1.05l-0.014,1.044l-0.014,1.039l-0.015,1.033l-0.015,1.028l-0.016,1.022l-0.016,1.016l-0.017,1.011l-0.017,1.006l-0.018,1l-0.019,0.994l-0.019,0.99l-0.02,0.984l-0.02,0.978l-0.021,0.974l-0.022,0.968l-0.022,0.962l-0.023,0.958l-0.023,0.952l-0.024,0.947l-0.024,0.942l-0.026,0.937l-0.025,0.932l-0.027,0.926l-0.027,0.922l-0.027,0.916l-0.028,0.912l-0.029,0.906l-0.03,0.902l-0.03,0.896l-0.031,0.892l-0.031,0.887l-0.032,0.882l-0.033,0.877l-0.033,0.872l-0.034,0.867l-0.035,0.863l-0.035,0.858l-0.036,0.853l-0.037,0.849l-0.037,0.844l-0.038,0.839l-0.039,0.834l-0.039,0.83l-0.04,0.826l-0.041,0.821l-0.041,0.816l-0.042,0.812l-0.043,0.807l-0.044,0.803l-0.044,0.799l-0.045,0.794l-0.046,0.789l-0.046,0.786l-0.047,0.781l-0.048,0.777l-0.048,0.772l-0.05,0.768l-0.05,0.764l-0.05,0.76l-0.052,0.756l-0.052,0.751l-0.053,0.748l-0.054,0.743l-0.054,0.739l-0.056,0.735l-0.056,0.731l-0.056,0.727l-0.058,0.723l-0.058,0.72l-0.059,0.715l-0.06,0.711l-0.061,0.708l-0.061,0.703l-0.062,0.7l-0.063,0.696l-0.064,0.692l-0.065,0.688l-0.065,0.685l-0.066,0.681l-0.067,0.677l-0.068,0.674l-0.069,0.67l-0.069,0.666l-0.071,0.663l-0.071,0.66l-0.072,0.655l-0.072,0.653l-0.074,0.648l-0.074,0.646l-0.076,0.641l-0.076,0.639l-0.077,0.635l-0.078,0.632l-0.078,0.628l-0.08,0.625l-0.08,0.622l-0.082,0.618l-0.082,0.615l-0.083,0.613l-0.084,0.608l-0.084,0.606l-0.086,0.603l-0.087,0.599l-0.087,0.596l-0.088,0.594l-0.09,0.59l-0.09,0.587l-0.091,0.584l-0.092,0.582l-0.093,0.578l-0.093,0.576l-0.095,0.572l-0.096,0.57l-0.096,0.567l-0.098,0.564l-0.098,0.561l-0.099,0.558l-0.101,0.556l-0.101,0.553l-0.102,0.55l-0.103,0.548l-0.104,0.545l-0.105,0.542l-0.106,0.54l-0.107,0.537l-0.108,0.535l-0.109,0.532l-0.11,0.53l-0.11,0.527l-0.112,0.525l-0.113,0.522l-0.114,0.52l-0.114,0.518l-0.116,0.515l-0.117,0.513l-0.117,0.51l-0.119,0.509l-0.12,0.506l-0.121,0.503l-0.121,0.502l-0.123,0.5l-0.124,0.497l-0.125,0.495l-0.126,0.493l-0.126,0.491l-0.128,0.489l-0.129,0.487l-0.13,0.485l-0.131,0.483l-0.132,0.481l-0.133,0.479l-0.135,0.477l-0.135,0.476l-0.136,0.473l-0.137,0.472l-0.139,0.47l-0.139,0.468l-0.141,0.466l-0.141,0.465l-0.143,0.462l-0.144,0.462l-0.145,0.459l-0.146,0.458l-0.147,0.456l-0.148,0.455l-0.149,0.453l-0.151,0.452l-0.151,0.45l-0.153,0.449l-0.153,0.447l-0.155,0.446l-0.156,0.444l-0.157,0.443l-0.158,0.442l-0.16,0.44l-0.16,0.439l-0.162,0.437l-0.163,0.437l-0.163,0.435l-0.165,0.434l-0.167,0.433l-0.167,0.431l-0.168,0.431l-0.17,0.429l-0.171,0.429l-0.172,0.427l-0.173,0.426l-0.174,0.425l-0.176,0.424l-0.177,0.424l-0.178,0.422l-0.179,0.421l-0.18,0.421l-0.181,0.42l-0.183,0.418l-0.184,0.418l-0.185,0.418l-0.186,0.416l-0.188,0.416l-0.188,0.415l-0.19,0.414l-0.192,0.414l-0.192,0.413l-0.194,0.412l-0.194,0.412l-0.196,0.411l-0.198,0.411l-0.198,0.41l-0.2,0.409l-0.201,0.41l-0.203,0.408l-0.203,0.409l-0.205,0.408l-0.206,0.407l-0.207,0.407l-0.209,0.407l-0.21,0.407l-0.211,0.406l-0.213,0.406l-0.213,0.406l-0.215,0.406l-0.217,0.405l-0.217,0.406l-0.219,0.405l-0.221,0.405l-0.221,0.405l-0.223,0.405l-0.224,0.405l-0.225,0.405l0.309,0.263l0.309,0.263l0.306,0.262l0.306,0.261l0.304,0.261l0.303,0.261l0.301,0.26l0.3,0.26l0.299,0.259l0.297,0.26l0.296,0.258l0.295,0.259l0.293,0.258l0.292,0.258l0.292,0.258l0.289,0.258l0.289,0.257l0.288,0.257l0.286,0.257l0.285,0.257l0.285,0.257l0.283,0.257l0.282,0.256l0.281,0.257l0.28,0.256l0.279,0.257l0.278,0.256l0.277,0.257l0.276,0.256l0.275,0.257l0.275,0.257l0.273,0.257l0.273,0.257l0.271,0.257l0.271,0.257l0.27,0.258l0.269,0.257l0.269,0.258l0.267,0.258l0.267,0.259l0.267,0.259l0.265,0.259l0.265,0.259l0.264,0.26l0.264,0.26l0.263,0.261l0.262,0.261l0.262,0.261l0.261,0.262l0.261,0.263l0.26,0.262l0.259,0.264l0.259,0.264l0.259,0.264l0.258,0.265l0.258,0.266l0.257,0.266l0.257,0.267l0.257,0.268l0.256,0.268l0.256,0.269l0.255,0.27l0.256,0.271l0.255,0.271l0.254,0.272l0.255,0.273l0.254,0.274l0.254,0.274l0.254,0.276l0.253,0.276l0.254,0.277l0.253,0.279l0.253,0.279l0.254,0.28l0.253,0.281l0.253,0.282l0.253,0.283l0.253,0.285l0.253,0.285l0.253,0.286l0.253,0.288l0.253,0.289l0.253,0.289l0.253,0.291l0.254,0.293l0.253,0.293l0.254,0.295l0.254,0.296l0.254,0.297l0.254,0.299l0.255,0.3l0.254,0.301l0.255,0.302l0.256,0.304l0.255,0.306l0.256,0.307l0.256,0.308l0.257,0.31l0.257,0.311l0.257,0.313l0.258,0.314l0.258,0.316l0.259,0.317l0.259,0.319l0.26,0.321l0.26,0.322l0.261,0.324l0.261,0.325l0.262,0.328l0.262,0.329l0.263,0.331l0.264,0.332l0.264,0.334l0.265,0.336l0.266,0.338l0.266,0.34l0.267,0.342l0.268,0.343l0.269,0.346l0.269,0.347l0.27,0.349l0.271,0.351l0.272,0.354l0.273,0.355l0.273,0.357l0.275,0.359l0.275,0.362l0.277,0.363l0.241,-0.431l0.24,-0.428l0.238,-0.426l0.236,-0.423l0.234,-0.421l0.231,-0.419l0.23,-0.416l0.228,-0.415l0.225,-0.412l0.224,-0.41l0.222,-0.408l0.22,-0.406l0.218,-0.404l0.216,-0.402l0.215,-0.4l0.212,-0.398l0.211,-0.396l0.209,-0.395l0.207,-0.393l0.206,-0.391l0.204,-0.39l0.202,-0.388l0.2,-0.386l0.199,-0.385l0.197,-0.384l0.195,-0.382l0.194,-0.381l0.192,-0.379l0.191,-0.379l0.189,-0.377l0.187,-0.376l0.186,-0.374l0.184,-0.374l0.183,-0.373l0.182,-0.371l0.18,-0.371l0.179,-0.37l0.177,-0.369l0.176,-0.368l0.174,-0.367l0.173,-0.367l0.172,-0.366l0.171,-0.365l0.169,-0.365l0.168,-0.364l0.166,-0.364l0.166,-0.363l0.164,-0.363l0.163,-0.363l0.162,-0.362l0.16,-0.362l0.16,-0.362l0.158,-0.361l0.157,-0.362l0.157,-0.361l0.155,-0.361l0.154,-0.362l0.153,-0.361l0.152,-0.362l0.151,-0.361l0.15,-0.362l0.149,-0.362l0.148,-0.362l0.148,-0.363l0.146,-0.363l0.145,-0.363l0.145,-0.364l0.144,-0.365l0.143,-0.365l0.142,-0.365l0.141,-0.366l0.141,-0.367l0.14,-0.368l0.139,-0.368l0.138,-0.369l0.138,-0.37l0.137,-0.371l0.137,-0.372l0.135,-0.373l0.136,-0.374l0.134,-0.375l0.134,-0.376l0.134,-0.378l0.133,-0.378l0.132,-0.38l0.132,-0.382l0.131,-0.382l0.131,-0.384l0.131,-0.386l0.13,-0.387l0.13,-0.388l0.129,-0.39l0.129,-0.392l0.129,-0.393l0.128,-0.395l0.128,-0.397l0.128,-0.399l0.127,-0.401l0.127,-0.402l0.127,-0.405l0.127,-0.406l0.126,-0.409l0.127,-0.41l0.126,-0.413l0.126,-0.415l0.126,-0.417l0.126,-0.42l0.126,-0.421l0.125,-0.425l0.126,-0.426l0.125,-0.429l0.126,-0.431l0.126,-0.435l0.125,-0.436l0.126,-0.439l0.126,-0.442l0.126,-0.445l0.126,-0.447l0.126,-0.451l0.126,-0.453l0.126,-0.456l0.127,-0.459l0.127,-0.462l0.127,-0.465l0.127,-0.468l0.128,-0.471l0.127,-0.474l0.129,-0.478l0.208,0.263l0.206,0.261l0.205,0.259l0.203,0.259l0.202,0.257l0.199,0.255l0.199,0.254l0.196,0.254l0.195,0.251l0.193,0.251l0.192,0.25l0.19,0.248l0.188,0.247l0.187,0.247l0.186,0.245l0.184,0.244l0.182,0.243l0.181,0.243l0.18,0.241l0.178,0.241l0.177,0.239l0.176,0.239l0.174,0.238l0.173,0.238l0.172,0.237l0.171,0.236l0.169,0.235l0.168,0.235l0.167,0.234l0.166,0.234l0.164,0.233l0.164,0.233l0.162,0.232l0.161,0.232l0.16,0.231l0.159,0.231l0.158,0.231l0.157,0.23l0.157,0.231l0.155,0.23l0.154,0.229l0.153,0.23l0.153,0.23l0.151,0.229l0.151,0.229l0.15,0.23l0.149,0.229l0.148,0.229l0.147,0.23l0.147,0.229l0.146,0.23l0.145,0.23l0.145,0.23l0.144,0.23l0.143,0.231l0.143,0.23l0.142,0.232l0.142,0.231l0.141,0.232l0.14,0.232l0.14,0.233l0.14,0.233l0.139,0.234l0.139,0.234l0.138,0.235l0.137,0.235l0.138,0.237l0.137,0.236l0.137,0.238l0.136,0.238l0.136,0.239l0.136,0.24l0.135,0.241l0.136,0.241l0.135,0.242l0.135,0.244l0.135,0.244l0.134,0.245l0.135,0.247l0.134,0.247l0.134,0.249l0.135,0.249l0.134,0.251l0.134,0.252l0.134,0.253l0.135,0.255l0.134,0.256l0.134,0.257l0.135,0.258l0.134,0.26l0.135,0.261l0.135,0.263l0.135,0.264l0.135,0.266l0.136,0.267l0.136,0.269l0.135,0.27l0.137,0.272l0.136,0.274l0.137,0.275l0.137,0.277l0.138,0.279l0.138,0.281l0.139,0.282l0.138,0.285l0.14,0.286l0.139,0.288l0.141,0.291l0.141,0.292l0.141,0.294l0.284,0.595l0.287,0.603l0.29,0.612l0.292,0.621l0.295,0.63l0.298,0.639l0.302,0.65l0.305,0.659l0.309,0.67l0.347,-0.216l0.346,-0.217l0.346,-0.217l0.346,-0.218l0.344,-0.219l0.344,-0.219l0.343,-0.22l0.343,-0.22l0.341,-0.22l0.342,-0.222l0.34,-0.221l0.34,-0.223l0.339,-0.223l0.338,-0.223l0.338,-0.224l0.337,-0.225l0.336,-0.225l0.336,-0.226l0.335,-0.226l0.334,-0.227l0.334,-0.227l0.333,-0.228l0.332,-0.229l0.332,-0.229l0.331,-0.23l0.33,-0.23l0.33,-0.231l0.329,-0.231l0.328,-0.232l0.328,-0.232l0.327,-0.234l0.326,-0.233l0.325,-0.234l0.325,-0.235l0.324,-0.235l0.324,-0.236l0.323,-0.237l0.322,-0.237l0.322,-0.237l0.32,-0.238l0.321,-0.239l0.319,-0.239l0.319,-0.24l0.318,-0.24l0.318,-0.241l0.317,-0.242l0.316,-0.242l0.315,-0.242l0.315,-0.244l0.314,-0.244l0.314,-0.244l0.313,-0.245l0.312,-0.245l0.312,-0.246l0.31,-0.247l0.311,-0.247l0.309,-0.248l0.309,-0.248l0.308,-0.249l0.308,-0.25l0.307,-0.25l0.306,-0.25l0.306,-0.252l0.305,-0.251l0.304,-0.253l0.303,-0.253l0.303,-0.253l0.303,-0.254l0.301,-0.255l0.301,-0.255l0.301,-0.256l0.299,-0.256l0.299,-0.257l0.299,-0.258l0.297,-0.258l0.297,-0.259l0.297,-0.259l0.295,-0.26l0.295,-0.26l0.295,-0.261l0.294,-0.262l0.293,-0.262l0.292,-0.263l0.292,-0.263l0.291,-0.264l0.291,-0.264l0.29,-0.265l0.289,-0.266l0.288,-0.266l0.288,-0.267l0.288,-0.267l0.286,-0.268l0.286,-0.269l0.286,-0.269l0.284,-0.27l0.284,-0.27l0.284,-0.271l0.282,-0.271l0.282,-0.272l0.282,-0.273l0.281,-0.273l0.28,-0.274l0.279,-0.274l0.279,-0.275l0.279,-0.276l0.277,-0.276l0.277,-0.277l0.276,-0.277l0.276,-0.278l0.275,-0.278l0.274,-0.279l0.274,-0.28l0.273,-0.28l0.273,-0.281l0.272,-0.282l0.271,-0.282l0.27,-0.282l0.27,-0.283l0.27,-0.284l0.268,-0.285l0.268,-0.285l0.268,-0.285l0.266,-0.286l0.266,-0.287l0.266,-0.287l0.265,-0.288l0.264,-0.289l0.264,-0.289l0.262,-0.29l0.263,-0.29l0.261,-0.291l0.261,-0.291l0.261,-0.292l0.26,-0.293l0.259,-0.293l0.258,-0.294l0.258,-0.295l0.257,-0.295l0.257,-0.295l0.256,-0.297l0.255,-0.296l0.255,-0.298l0.254,-0.298l0.254,-0.299l0.253,-0.299l0.252,-0.3l0.251,-0.3l0.251,-0.301l0.251,-0.302l0.25,-0.302l0.249,-0.303l0.248,-0.303l0.248,-0.304l0.247,-0.305l0.247,-0.305l0.246,-0.306l0.245,-0.306l0.245,-0.307l0.244,-0.308l0.244,-0.308l0.243,-0.309l0.242,-0.31l0.242,-0.31l0.241,-0.31l0.24,-0.312l0.24,-0.312l0.239,-0.312l0.239,-0.313l0.238,-0.314l0.237,-0.314l0.237,-0.315l0.236,-0.315l0.235,-0.317l0.235,-0.316l0.234,-0.318l0.234,-0.318l0.233,-0.318l0.233,-0.319l0.231,-0.32l0.232,-0.32l0.23,-0.321l0.23,-0.322l0.23,-0.322l0.228,-0.323l0.228,-0.323l0.228,-0.324l0.227,-0.325l0.226,-0.325l0.226,-0.326l0.225,-0.327l0.225,-0.327l0.224,-0.327l0.223,-0.329l0.222,-0.329l0.223,-0.329l0.221,-0.33l0.221,-0.331l0.22,-0.332l0.22,-0.332l0.219,-0.332l0.218,-0.333l0.218,-0.334l0.217,-0.335l0.217,-0.335l0.216,-0.335l0.216,-0.337l0.214,-0.337l0.215,-0.337l0.213,-0.338l0.213,-0.339l0.213,-0.34l0.212,-0.34l0.211,-0.34l0.211,-0.341l0.21,-0.342l0.209,-0.343l0.209,-0.343l0.208,-0.344l0.208,-0.344l0.207,-0.345l0.206,-0.346l0.206,-0.346l0.206,-0.347l0.204,-0.347l0.204,-0.348l0.204,-0.349l0.203,-0.349l0.202,-0.35l0.202,-0.351l0.201,-0.351l0.201,-0.352l0.199,-0.352l0.2,-0.354l0.199,-0.353l0.198,-0.355l0.197,-0.355l0.197,-0.355l0.197,-0.356l0.196,-0.357l0.195,-0.358l0.195,-0.358l0.194,-0.359l0.193,-0.359l0.193,-0.36l0.192,-0.361l0.192,-0.361l0.191,-0.362l0.191,-0.362l0.19,-0.363l0.189,-0.364l0.189,-0.364l0.188,-0.365l0.188,-0.366l0.187,-0.366l0.187,-0.367l0.186,-0.368l-0.027,0.403l-0.026,0.397l-0.025,0.393l-0.024,0.388l-0.023,0.384l-0.023,0.38l-0.022,0.375l-0.021,0.372l-0.02,0.367l-0.02,0.364l-0.018,0.361l-0.019,0.357l-0.017,0.354l-0.017,0.351l-0.016,0.349l-0.015,0.345l-0.015,0.343l-0.015,0.341l-0.013,0.338l-0.013,0.337l-0.013,0.334l-0.012,0.333l-0.011,0.331l-0.011,0.33l-0.01,0.328l-0.01,0.327l-0.009,0.327l-0.009,0.325l-0.008,0.325l-0.008,0.325l-0.008,0.324l-0.006,0.324l-0.007,0.324l-0.006,0.324l-0.006,0.325l-0.005,0.325l-0.01,0.652l-0.008,0.656l-0.007,0.66l-0.006,0.668l-0.005,0.674l-0.003,0.684l-0.003,0.694l-0.003,0.705l-0.001,0.718l-0.001,0.732l-0.001,1.51l0,1.581l0,42.336l-0.001,0.537l-0.001,0.532l-0.002,0.527l-0.003,0.521l-0.004,0.517l-0.005,0.511l-0.005,0.506l-0.006,0.502l-0.008,0.497l-0.008,0.492l-0.009,0.488l-0.009,0.484l-0.011,0.479l-0.011,0.475l-0.012,0.471l-0.013,0.467l-0.014,0.463l-0.015,0.459l-0.016,0.455l-0.016,0.452l-0.018,0.448l-0.018,0.445l-0.019,0.442l-0.019,0.438l-0.021,0.436l-0.022,0.432l-0.022,0.429l-0.023,0.427l-0.024,0.424l-0.025,0.421l-0.026,0.419l-0.026,0.416l-0.028,0.414l-0.028,0.412l-0.029,0.409l-0.03,0.408l-0.031,0.406l-0.032,0.404l-0.032,0.402l-0.033,0.4l-0.035,0.399l-0.035,0.398l-0.036,0.396l-0.036,0.395l-0.038,0.394l-0.038,0.393l-0.039,0.392l-0.04,0.391l-0.041,0.39l-0.042,0.39l-0.043,0.389l-0.043,0.388l-0.045,0.389l-0.045,0.388l-0.046,0.388l-0.046,0.388l-0.048,0.388l-0.049,0.388l-0.049,0.388l-0.05,0.389l-0.051,0.389l-0.052,0.39l-0.053,0.39l-0.053,0.391l46.08,0l-0.067,-0.457l-0.065,-0.454l-0.063,-0.451l-0.062,-0.448l-0.06,-0.445l-0.059,-0.443l-0.057,-0.44l-0.055,-0.437l-0.054,-0.435l-0.052,-0.433l-0.051,-0.431l-0.05,-0.429l-0.048,-0.427l-0.046,-0.425l-0.045,-0.424l-0.044,-0.423l-0.042,-0.421l-0.041,-0.42l-0.04,-0.419l-0.038,-0.419l-0.037,-0.417l-0.036,-0.417l-0.035,-0.417l-0.033,-0.416l-0.032,-0.416l-0.031,-0.415l-0.03,-0.416l-0.028,-0.416l-0.028,-0.417l-0.026,-0.416l-0.025,-0.418l-0.024,-0.418l-0.024,-0.419l-0.022,-0.42l-0.021,-0.421l-0.02,-0.422l-0.019,-0.424l-0.018,-0.425l-0.017,-0.427l-0.016,-0.428l-0.016,-0.431l-0.014,-0.432l-0.014,-0.435l-0.013,-0.437l-0.012,-0.439l-0.011,-0.442l-0.01,-0.445l-0.01,-0.447l-0.009,-0.45l-0.008,-0.454l-0.008,-0.456l-0.006,-0.46l-0.007,-0.464l-0.005,-0.467l-0.005,-0.471l-0.004,-0.475l-0.004,-0.478l-0.003,-0.483l-0.003,-0.487l-0.002,-0.492l-0.002,-0.496l-0.001,-0.501l0,-0.505l0,-0.511l0,-42.336l-0.001,-0.163l0,-0.165l-0.001,-0.166l-0.002,-0.169l-0.002,-0.172l-0.002,-0.174l-0.006,-0.357l-0.008,-0.369l-0.009,-0.384l-0.011,-0.399l-0.012,-0.416l-0.015,-0.435l-0.016,-0.455l-0.018,-0.476l-0.019,-0.499l-0.021,-0.524l-0.023,-0.55l-0.024,-0.577l-0.026,-0.606l-0.058,-1.305l-0.064,-1.438l-0.071,-1.583l-0.077,-1.74l-0.085,-1.909l-0.091,-2.089l-0.048,-1.116l-0.05,-1.166l-0.051,-1.217l-0.053,-1.269l0.202,0.368l0.203,0.366l0.203,0.366l0.204,0.365l0.204,0.365l0.204,0.364l0.205,0.363l0.205,0.362l0.205,0.361l0.206,0.361l0.206,0.36l0.206,0.359l0.207,0.359l0.207,0.358l0.207,0.357l0.208,0.356l0.208,0.356l0.209,0.355l0.209,0.354l0.209,0.354l0.21,0.353l0.21,0.352l0.21,0.351l0.211,0.351l0.211,0.35l0.211,0.35l0.212,0.348l0.213,0.349l0.213,0.347l0.213,0.347l0.213,0.346l0.214,0.345l0.215,0.345l0.215,0.344l0.215,0.343l0.216,0.343l0.216,0.342l0.216,0.341l0.217,0.341l0.218,0.34l0.217,0.34l0.219,0.339l0.218,0.338l0.22,0.338l0.219,0.337l0.22,0.336l0.221,0.336l0.221,0.335l0.221,0.335l0.222,0.334l0.223,0.333l0.223,0.333l0.223,0.332l0.224,0.331l0.224,0.331l0.225,0.331l0.225,0.329l0.226,0.33l0.226,0.328l0.227,0.328l0.228,0.328l0.227,0.326l0.229,0.327l0.229,0.326l0.229,0.325l0.23,0.324l0.23,0.324l0.231,0.324l0.231,0.323l0.232,0.322l0.233,0.322l0.233,0.322l0.233,0.321l0.235,0.32l0.234,0.32l0.235,0.319l0.236,0.319l0.236,0.318l0.237,0.317l0.238,0.318l0.238,0.316l0.238,0.316l0.239,0.316l0.24,0.315l0.24,0.315l0.241,0.314l0.242,0.314l0.242,0.313l0.242,0.313l0.243,0.312l0.244,0.312l0.245,0.311l0.245,0.311l0.245,0.31l0.246,0.31l0.247,0.309l0.248,0.309l0.248,0.309l0.248,0.308l0.25,0.307l0.249,0.308l0.251,0.306l0.251,0.307l0.252,0.305l0.252,0.306l0.253,0.305l0.254,0.304l0.255,0.305l0.255,0.303l0.255,0.303l0.257,0.303l0.257,0.303l0.257,0.302l0.258,0.302l0.259,0.301l0.26,0.301l0.26,0.3l0.261,0.3l0.262,0.3l0.263,0.299l0.263,0.299l0.263,0.299l0.265,0.298l0.265,0.298l0.266,0.297l0.266,0.297l0.268,0.297l0.268,0.296l0.268,0.296l0.27,0.296l0.27,0.295l0.27,0.295l0.272,0.294l0.272,0.295l0.273,0.294l0.274,0.293l0.275,0.293l0.275,0.293l0.276,0.293l0.276,0.292l0.278,0.292l0.278,0.292l0.279,0.291l0.28,0.291l0.28,0.291l0.281,0.29l0.282,0.29l0.283,0.29l0.284,0.29l0.284,0.289l0.285,0.289l0.286,0.289l0.287,0.288l0.287,0.288l0.289,0.288l0.289,0.288l0.289,0.287l0.291,0.287l0.292,0.287l0.292,0.286l0.293,0.287l0.294,0.286l0.295,0.285l0.295,0.286l0.296,0.285l0.298,0.285l0.298,0.285l0.298,0.285l0.3,0.284l0.301,0.284l0.301,0.284l0.302,0.284l0.303,0.283l0.304,0.283l0.305,0.284l0.306,0.282l0.306,0.283l0.307,0.282l0.309,0.283l0.309,0.282l0.31,0.282l0.31,0.281l0.312,0.282l0.313,0.281l0.313,0.281l0.315,0.281l0.315,0.281l0.316,0.281l0.317,0.28l0.318,0.28l0.319,0.281l0.32,0.28l0.32,0.279l0.322,0.28l0.322,0.28l0.324,0.279l0.324,0.279l0.325,0.279l0.326,0.279l0.327,0.279l0.329,0.279l0.329,0.279l0.329,0.278l0.331,0.279l0.332,0.278l0.333,0.278l0.334,0.278l0.334,0.278l0.336,0.278l0.337,0.278l0.337,0.277l0.339,0.278l0.339,0.277l0.341,0.278l0.341,0.277l0.342,0.277l0.344,0.277l0.344,0.277l0.346,0.277l0.346,0.277l0.347,0.277l0.349,0.277l0.349,0.277l0.351,0.277l0.351,0.276l0.352,0.277l0.354,0.277l0.354,0.276l0.356,0.277l0.356,0.276l0.358,0.276l0.358,0.277l0.36,0.276l0.361,0.277l0.361,0.276l0.363,0.276l0.364,0.277l0.364,0.276l0.366,0.276l0.367,0.277l0.368,0.276l0.369,0.276l0.37,0.277l0.371,0.276l0.373,0.276l0.373,0.277l0.374,0.276l0.376,0.276l0.376,0.277l0.378,0.276l0.379,0.277l0.379,0.276l0.381,0.277l0.382,0.277l0.383,0.276l0.385,0.277l0.389,-0.831l0.384,-0.818l0.381,-0.806l0.377,-0.795l0.372,-0.784l0.369,-0.772l0.184,-0.382l0.182,-0.38l0.182,-0.377l0.18,-0.374l0.181,-0.372l0.179,-0.369l0.179,-0.367l0.178,-0.365l0.177,-0.362l0.177,-0.36l0.176,-0.358l0.175,-0.356l0.175,-0.353l0.175,-0.351l0.174,-0.349l0.173,-0.347l0.173,-0.345l0.173,-0.343l0.172,-0.342l0.172,-0.339l0.172,-0.337l0.171,-0.336l0.171,-0.334l0.17,-0.332l0.171,-0.33l0.17,-0.329l0.17,-0.327l0.17,-0.326l0.17,-0.324l0.169,-0.323l0.17,-0.321l0.169,-0.32l0.17,-0.319l0.169,-0.317l0.169,-0.316l0.17,-0.314l0.169,-0.314l0.17,-0.312l0.17,-0.311l0.17,-0.311l0.17,-0.309l0.17,-0.308l0.17,-0.307l0.171,-0.307l0.171,-0.305l0.171,-0.305l0.172,-0.304l0.172,-0.303l0.172,-0.302l0.173,-0.302l0.173,-0.301l0.174,-0.301l0.174,-0.3l0.174,-0.3l0.175,-0.299l0.176,-0.299l0.176,-0.298l0.177,-0.298l0.177,-0.298l0.178,-0.298l0.179,-0.297l0.18,-0.297l0.18,-0.297l0.181,-0.297l0.182,-0.297l0.182,-0.297l0.183,-0.297l0.185,-0.298l0.185,-0.297l0.186,-0.297l0.187,-0.298l0.188,-0.298l0.189,-0.298l0.19,-0.299l0.191,-0.299l0.192,-0.299l0.193,-0.3l0.194,-0.3l0.195,-0.301l0.197,-0.301l0.197,-0.303l0.199,-0.302l0.201,-0.304l0.201,-0.304l0.203,-0.305l0.204,-0.306l0.205,-0.306l0.207,-0.308l0.208,-0.309l0.21,-0.309l0.211,-0.311l0.212,-0.312l0.214,-0.312l0.216,-0.314l0.217,-0.315l0.218,-0.317l0.221,-0.318l0.221,-0.319l0.224,-0.32l0.225,-0.322l0.227,-0.323l0.229,-0.325l0.23,-0.326l0.232,-0.328l0.234,-0.329l0.236,-0.332l0.237,-0.332l0.24,-0.335l0.241,-0.336l0.244,-0.338l0.245,-0.34l0.247,-0.342l0.249,-0.344l0.252,-0.346l0.253,-0.348l0.256,-0.35l-0.415,-0.243l-0.414,-0.244l-0.414,-0.245l-0.412,-0.245l-0.412,-0.245l-0.411,-0.247l-0.411,-0.247l-0.41,-0.247l-0.409,-0.248l-0.408,-0.249l-0.407,-0.249l-0.407,-0.25l-0.406,-0.25l-0.406,-0.251l-0.404,-0.252l-0.404,-0.252l-0.403,-0.253l-0.403,-0.253l-0.401,-0.254l-0.401,-0.254l-0.4,-0.255l-0.399,-0.256l-0.399,-0.256l-0.398,-0.257l-0.397,-0.257l-0.396,-0.258l-0.396,-0.258l-0.395,-0.259l-0.394,-0.26l-0.393,-0.26l-0.393,-0.26l-0.391,-0.261l-0.391,-0.262l-0.39,-0.262l-0.39,-0.263l-0.388,-0.263l-0.388,-0.264l-0.387,-0.264l-0.387,-0.265l-0.385,-0.265l-0.385,-0.266l-0.384,-0.266l-0.383,-0.267l-0.382,-0.268l-0.382,-0.268l-0.38,-0.268l-0.38,-0.269l-0.379,-0.27l-0.379,-0.27l-0.377,-0.27l-0.377,-0.271l-0.376,-0.272l-0.375,-0.272l-0.374,-0.272l-0.373,-0.273l-0.373,-0.274l-0.372,-0.274l-0.371,-0.274l-0.37,-0.275l-0.369,-0.275l-0.369,-0.276l-0.367,-0.277l-0.367,-0.277l-0.366,-0.277l-0.365,-0.278l-0.364,-0.278l-0.364,-0.279l-0.362,-0.279l-0.362,-0.28l-0.361,-0.28l-0.36,-0.281l-0.359,-0.281l-0.359,-0.281l-0.357,-0.282l-0.357,-0.283l-0.356,-0.283l-0.355,-0.283l-0.354,-0.284l-0.353,-0.284l-0.352,-0.285l-0.352,-0.285l-0.35,-0.285l-0.35,-0.287l-0.349,-0.286l-0.348,-0.287l-0.347,-0.287l-0.346,-0.288l-0.346,-0.288l-0.344,-0.289l-0.344,-0.289l-0.342,-0.289l-0.342,-0.29l-0.341,-0.29l-0.34,-0.291l-0.339,-0.291l-0.338,-0.292l-0.338,-0.292l-0.336,-0.292l-0.336,-0.293l-0.334,-0.293l-0.334,-0.293l-0.333,-0.294l-0.332,-0.295l-0.331,-0.294l-0.33,-0.296l-0.329,-0.295l-0.328,-0.296l-0.327,-0.296l-0.327,-0.297l-0.325,-0.297l-0.325,-0.297l-0.323,-0.298l-0.323,-0.298l-0.322,-0.299l-0.32,-0.299l-0.32,-0.299l-0.319,-0.3l-0.318,-0.3l-0.317,-0.3l-0.316,-0.301l-0.315,-0.301l-0.314,-0.302l-0.314,-0.302l-0.312,-0.302l-0.311,-0.302l-0.311,-0.303l-0.309,-0.303l-0.308,-0.304l-0.308,-0.304l-0.307,-0.304l-0.305,-0.305l-0.305,-0.305l-0.303,-0.305l-0.303,-0.306l-0.302,-0.305l-0.3,-0.307l-0.3,-0.306l-0.299,-0.307l-0.297,-0.307l-0.297,-0.308l-0.296,-0.308l-0.295,-0.308l-0.294,-0.309l-0.292,-0.308l-0.292,-0.31l-0.291,-0.309l-0.29,-0.31l-0.289,-0.31l-0.288,-0.31l-0.286,-0.311l-0.286,-0.311l-0.285,-0.311l-0.284,-0.311l-0.283,-0.312l-0.281,-0.312l-0.281,-0.313l-0.28,-0.312l-0.279,-0.313l-0.277,-0.314l-0.277,-0.313l-0.276,-0.314l-0.274,-0.314l-0.274,-0.314l-0.273,-0.315l-0.271,-0.315l-0.271,-0.315l-0.269,-0.315l-0.268,-0.316l-0.268,-0.316l-0.266,-0.316l-0.265,-0.317l-0.265,-0.316l-0.263,-0.317l-0.262,-0.318l-0.261,-0.317l-0.26,-0.318l-0.259,-0.318l-0.258,-0.318l-0.257,-0.318l-0.256,-0.319l-0.255,-0.319l-0.253,-0.319l-0.253,-0.319l-0.251,-0.32l-0.251,-0.32l-0.249,-0.32l-0.249,-0.32l-0.247,-0.321l-0.246,-0.32l-0.245,-0.321l-0.244,-0.322l-0.243,-0.321l-0.242,-0.321l-0.241,-0.322l-0.239,-0.322l-0.239,-0.322l-0.237,-0.323l-0.237,-0.322l-0.235,-0.323l-0.234,-0.323l-0.233,-0.323l-0.232,-0.324l-0.231,-0.323l-0.23,-0.324l-0.228,-0.324l-0.228,-0.324l-0.226,-0.325l-0.225,-0.324l-0.224,-0.325l-0.224,-0.325l-0.221,-0.325l-0.221,-0.325l-0.22,-0.325l-0.218,-0.326l-0.218,-0.325l-0.216,-0.326l-0.215,-0.326l-0.214,-0.326l-0.213,-0.327l-0.212,-0.326l-0.21,-0.327l-0.21,-0.327l-0.208,-0.327l-0.207,-0.327l-0.206,-0.327l-0.205,-0.327l-0.204,-0.328l-0.202,-0.327l-0.202,-0.328l-0.2,-0.328l-0.199,-0.328l-0.198,-0.328l-0.196,-0.329l-0.196,-0.328l-0.194,-0.329l-0.194,-0.328l-0.192,-0.329l-0.19,-0.329l-0.19,-0.329l-0.189,-0.329l-0.187,-0.33l-0.186,-0.329l-0.185,-0.33l-0.184,-0.329l-0.182,-0.33l-0.182,-0.33l-0.18,-0.33l-0.179,-0.33l-0.178,-0.33l-0.176,-0.33l-0.176,-0.33l-0.174,-0.331l-0.173,-0.33l-0.172,-0.331l-0.17,-0.33l-0.169,-0.331l29.376,0l0.659,0l0.657,0.002l0.653,0.002l0.65,0.003l0.647,0.004l0.643,0.004l0.641,0.006l0.637,0.006l0.635,0.007l0.631,0.008l0.629,0.009l0.626,0.01l0.623,0.01l0.62,0.012l0.617,0.012l0.615,0.013l0.612,0.014l0.61,0.015l0.607,0.015l0.604,0.017l0.602,0.017l0.6,0.018l0.597,0.019l0.595,0.02l0.592,0.021l0.591,0.021l0.588,0.023l0.586,0.023l0.584,0.024l0.582,0.025l0.58,0.025l0.579,0.027l0.576,0.027l0.574,0.029l0.573,0.029l0.57,0.03l0.569,0.031l0.568,0.031l0.566,0.033l0.564,0.033l0.562,0.034l0.562,0.035l0.559,0.036l0.559,0.037l0.557,0.037l0.555,0.039l0.555,0.039l0.553,0.04l0.552,0.041l0.551,0.042l0.55,0.042l0.549,0.044l0.548,0.044l0.547,0.045l0.546,0.046l0.545,0.047l0.545,0.048l0.543,0.048l0.543,0.05l0.543,0.05l0.541,0.051l0.542,0.052l0.54,0.052l0.541,0.054l0,-43.488l-0.527,0.054l-0.528,0.052l-0.529,0.052l-0.53,0.051l-0.531,0.051l-0.532,0.049l-0.533,0.048l-0.535,0.048l-0.536,0.047l-0.538,0.046l-0.539,0.045l-0.54,0.044l-0.542,0.044l-0.544,0.042l-0.546,0.042l-0.547,0.041l-0.55,0.04l-0.551,0.039l-0.554,0.039l-0.555,0.037l-0.558,0.037l-0.56,0.036l-0.562,0.035l-0.564,0.034l-0.567,0.033l-0.57,0.033l-0.572,0.032l-0.574,0.03l-0.578,0.03l-0.58,0.029l-0.583,0.029l-0.585,0.027l-0.589,0.027l-0.592,0.025l-0.595,0.025l-0.598,0.024l-0.601,0.024l-0.605,0.022l-0.607,0.021l-0.612,0.021l-0.614,0.02l-0.619,0.019l-0.622,0.018l-0.625,0.017l-0.629,0.017l-0.634,0.015l-0.637,0.015l-0.64,0.014l-0.645,0.013l-0.649,0.012l-0.654,0.012l-0.657,0.01l-0.662,0.01l-0.666,0.009l-0.67,0.008l-0.675,0.007l-0.679,0.006l-0.684,0.006l-0.689,0.005l-0.693,0.003l-0.698,0.003l-0.704,0.002l-0.708,0.002l-0.712,0l-45.504,0l0,-9.792l0,-0.429l0,-0.423l0.001,-0.418l0.002,-0.412l0.002,-0.406l0.002,-0.401l0.003,-0.396l0.004,-0.391l0.003,-0.386l0.005,-0.38l0.004,-0.376l0.006,-0.371l0.006,-0.366l0.006,-0.362l0.007,-0.358l0.007,-0.353l0.008,-0.349l0.008,-0.345l0.009,-0.34l0.01,-0.337l0.01,-0.333l0.01,-0.33l0.011,-0.326l0.012,-0.322l0.013,-0.319l0.012,-0.316l0.014,-0.312l0.014,-0.31l0.015,-0.306l0.015,-0.304l0.016,-0.301l0.017,-0.298l0.017,-0.296l0.018,-0.293l0.018,-0.291l0.019,-0.289l0.02,-0.286l0.02,-0.285l0.022,-0.283l0.021,-0.281l0.023,-0.279l0.023,-0.278l0.024,-0.276l0.024,-0.275l0.026,-0.274l0.026,-0.272l0.027,-0.271l0.027,-0.271l0.028,-0.27l0.029,-0.268l0.03,-0.269l0.03,-0.267l0.032,-0.268l0.032,-0.267l0.032,-0.266l0.034,-0.267l0.034,-0.267l0.035,-0.266l0.036,-0.267l0.037,-0.268l0.038,-0.267l0.038,-0.268l0.039,-0.269l0.041,-0.27l-44.928,0l0.079,0.848l0.076,0.818l0.073,0.789l0.069,0.763l0.066,0.736l0.064,0.714l0.06,0.691l0.057,0.671l0.054,0.653l0.026,0.319l0.026,0.316l0.024,0.312l0.024,0.309l0.023,0.305l0.023,0.302l0.021,0.299l0.022,0.296l0.02,0.293l0.02,0.292l0.019,0.289l0.018,0.287l0.018,0.286l0.018,0.284l0.016,0.283l0.016,0.282l0.015,0.281l0.015,0.28l0.014,0.28l0.014,0.28l0.012,0.28l0.013,0.28l0.012,0.28l0.011,0.281l0.01,0.282l0.01,0.283l0.01,0.284l0.009,0.286l0.008,0.287l0.008,0.289l0.007,0.291l0.007,0.294l0.006,0.296l0.006,0.299l0.006,0.302l0.004,0.305l0.005,0.309l0.003,0.312l0.004,0.315l0.003,0.32l0.002,0.324l0.002,0.329l0.002,0.333l0.001,0.338l0,0.343l0.001,0.348l0,9.504l-34.272,0l-0.857,0l-0.842,-0.001l-0.828,-0.001l-0.814,-0.001l-0.799,-0.002l-0.786,-0.003l-0.772,-0.003l-0.759,-0.004l-0.746,-0.004l-0.733,-0.004l-0.721,-0.005l-0.707,-0.006l-0.696,-0.006l-0.683,-0.007l-0.671,-0.008l-0.66,-0.008l-0.648,-0.009l-0.637,-0.009l-0.626,-0.01l-0.615,-0.011l-0.604,-0.011l-0.594,-0.012l-0.583,-0.013l-0.574,-0.014l-0.563,-0.014l-0.554,-0.015l-0.545,-0.016l-0.535,-0.017l-0.526,-0.017l-0.518,-0.018l-0.508,-0.019l-0.5,-0.02l-0.493,-0.021l-0.484,-0.021l-0.476,-0.023l-0.468,-0.023l-0.462,-0.024l-0.454,-0.025l-0.447,-0.026l-0.44,-0.027l-0.433,-0.028l-0.427,-0.029l-0.421,-0.03l-0.416,-0.03l-0.409,-0.032l-0.403,-0.033l-0.399,-0.034l-0.393,-0.035l-0.388,-0.036l-0.384,-0.037l-0.379,-0.038l-0.187,-0.02l-0.187,-0.019l-0.186,-0.02l-0.185,-0.021l-0.183,-0.02l-0.183,-0.021l-0.182,-0.021l-0.181,-0.022l-0.18,-0.021l-0.179,-0.022l-0.178,-0.023l-0.178,-0.022l-0.177,-0.023l-0.176,-0.023l-0.175,-0.024l-0.175,-0.023l-0.174,-0.025l-0.173,-0.024l-0.172,-0.025l-0.172,-0.025l-0.172,-0.025l-0.171,-0.025l-0.17,-0.026l-0.17,-0.027l-0.338,-0.053l0,42.912l0.431,-0.053l0.431,-0.052l0.43,-0.051l0.43,-0.05l0.429,-0.048l0.429,-0.048l0.429,-0.046l0.429,-0.045l0.429,-0.043l0.429,-0.043l0.429,-0.041l0.43,-0.041l0.43,-0.039l0.431,-0.038l0.432,-0.037l0.432,-0.036l0.433,-0.035l0.435,-0.034l0.435,-0.033l0.437,-0.031l0.438,-0.031l0.44,-0.03l0.442,-0.029l0.443,-0.028l0.445,-0.027l0.447,-0.026l0.449,-0.025l0.451,-0.024l0.453,-0.023l0.456,-0.023l0.458,-0.021l0.462,-0.021l0.463,-0.02l0.467,-0.019l0.469,-0.018l0.473,-0.017l0.476,-0.017l0.479,-0.016l0.483,-0.015l0.486,-0.014l0.49,-0.014l0.493,-0.012l0.497,-0.013l0.502,-0.011l0.505,-0.011l0.51,-0.01l0.514,-0.009l0.518,-0.009l0.523,-0.008l0.527,-0.008l0.533,-0.006l0.537,-0.007l0.542,-0.005l0.547,-0.006l0.553,-0.004l0.557,-0.004l0.564,-0.004l0.568,-0.003l0.575,-0.002l0.58,-0.002l0.586,-0.002l0.592,-0.001l0.598,-0.001l0.605,0l19.872,0l-0.153,0.327l-0.153,0.327l-0.154,0.327l-0.156,0.326l-0.156,0.327l-0.157,0.326l-0.158,0.325l-0.159,0.326l-0.16,0.325l-0.16,0.324l-0.162,0.325l-0.163,0.324l-0.164,0.324l-0.164,0.324l-0.166,0.323l-0.166,0.323l-0.167,0.323l-0.169,0.323l-0.169,0.322l-0.17,0.322l-0.171,0.322l-0.172,0.321l-0.173,0.321l-0.174,0.321l-0.175,0.32l-0.175,0.32l-0.177,0.32l-0.177,0.32l-0.179,0.319l-0.179,0.319l-0.18,0.319l-0.181,0.318l-0.182,0.318l-0.183,0.318l-0.184,0.317l-0.185,0.318l-0.185,0.316l-0.187,0.317l-0.187,0.316l-0.189,0.316l-0.189,0.315l-0.19,0.315l-0.191,0.315l-0.192,0.315l-0.193,0.314l-0.193,0.314l-0.195,0.314l-0.195,0.313l-0.197,0.313l-0.197,0.312l-0.198,0.312l-0.199,0.312l-0.2,0.312l-0.201,0.311l-0.201,0.311l-0.203,0.31l-0.203,0.311l-0.204,0.309l-0.205,0.31l-0.206,0.309l-0.207,0.309l-0.208,0.308l-0.209,0.308l-0.209,0.308l-0.21,0.307l-0.211,0.307l-0.213,0.307l-0.212,0.306l-0.214,0.306l-0.215,0.306l-0.215,0.305l-0.217,0.305l-0.217,0.304l-0.218,0.305l-0.219,0.303l-0.219,0.304l-0.221,0.303l-0.221,0.302l-0.223,0.302l-0.223,0.302l-0.224,0.302l-0.224,0.301l-0.226,0.301l-0.227,0.3l-0.227,0.3l-0.228,0.299l-0.229,0.3l-0.23,0.298l-0.23,0.299l-0.232,0.298l-0.232,0.297l-0.233,0.298l-0.234,0.296l-0.235,0.297l-0.236,0.296l-0.236,0.295l-0.237,0.296l-0.238,0.294l-0.239,0.295l-0.24,0.294l-0.24,0.293l-0.242,0.294l-0.242,0.292l-0.243,0.293l-0.244,0.292l-0.244,0.291l-0.246,0.291l-0.246,0.291l-0.247,0.29l-0.247,0.29l-0.249,0.29l-0.249,0.289l-0.251,0.288l-0.251,0.288l-0.251,0.288l-0.253,0.287l-0.253,0.287l-0.255,0.287l-0.255,0.286l-0.255,0.285l-0.257,0.285l-0.257,0.285l-0.258,0.284l-0.259,0.284l-0.26,0.284l-0.26,0.283l-0.261,0.282l-0.262,0.282l-0.263,0.282l-0.264,0.281l-0.264,0.28l-0.265,0.281l-0.266,0.28l-0.267,0.279l-0.267,0.279l-0.269,0.278l-0.268,0.278l-0.27,0.278l-0.271,0.277l-0.271,0.276l-0.272,0.276l-0.273,0.276l-0.273,0.275l-0.275,0.275l-0.275,0.274l-0.276,0.274l-0.276,0.273l-0.277,0.273l-0.278,0.272l-0.279,0.272l-0.28,0.271l-0.28,0.271l-0.281,0.271l-0.282,0.269l-0.283,0.27l-0.283,0.269l-0.284,0.268l-0.285,0.268l-0.285,0.268l-0.286,0.267l-0.287,0.266l-0.288,0.266l-0.289,0.266l-0.289,0.265l-0.29,0.264l-0.29,0.264l-0.292,0.264l-0.292,0.263l-0.293,0.262l-0.293,0.262l-0.294,0.262l-0.295,0.26l-0.296,0.261l-0.296,0.26l-0.298,0.259l-0.297,0.259l-0.299,0.258l-0.299,0.258l-0.3,0.258l-0.301,0.257l-0.301,0.256l-0.302,0.256l-0.303,0.255l-0.304,0.255l-0.304,0.254l-0.305,0.253l-0.305,0.253l-0.307,0.253l-0.307,0.252l-0.307,0.252l-0.309,0.251l-0.309,0.25l-0.31,0.25l-0.31,0.249l-0.311,0.249l-0.312,0.248l-0.313,0.248l-0.313,0.247l-0.314,0.247l-0.315,0.246l-0.315,0.246l-0.316,0.245l-0.316,0.244l-0.318,0.244l-0.318,0.243l-0.318,0.243l-0.32,0.242l-0.32,0.242l-0.32,0.241l-0.322,0.24l-0.322,0.24l-0.323,0.239l-0.323,0.239l-0.324,0.238l-0.325,0.238l-0.325,0.237l-0.326,0.237l-0.327,0.236l-0.327,0.235l-0.328,0.235l-0.329,0.234l-0.329,0.234l-0.33,0.233l-0.33,0.232l-0.332,0.232l-0.331,0.231l-0.333,0.231l-0.333,0.23l-0.334,0.229l-0.334,0.229l-0.335,0.228l-0.336,0.228l-0.337,0.227l-0.337,0.227l-0.337,0.226l-0.339,0.225l-0.338,0.225l-0.34,0.224l-0.34,0.223l-0.341,0.223l-0.341,0.222l-0.343,0.222l-0.342,0.221l-0.344,0.22l-0.343,0.22l-0.345,0.219l-0.345,0.219l-0.346,0.218l-0.346,0.217l-0.347,0.217l-0.348,0.216l-0.348,0.216l-0.349,0.214l-0.35,0.215l-0.35,0.213l-0.35,0.213l0.09,-0.415l0.091,-0.415l0.09,-0.414l0.089,-0.415l0.089,-0.414l0.088,-0.414l0.088,-0.415l0.088,-0.414l0.086,-0.414l0.087,-0.413l0.086,-0.414l0.085,-0.414l0.085,-0.414l0.085,-0.414l0.084,-0.414l0.083,-0.414l0.083,-0.414l0.083,-0.414l0.082,-0.414l0.081,-0.414l0.081,-0.414l0.081,-0.415l0.08,-0.415l0.08,-0.415l0.079,-0.415l0.079,-0.415l0.078,-0.416l0.078,-0.415l0.077,-0.416l0.077,-0.417l0.076,-0.416l0.076,-0.417l0.076,-0.418l0.075,-0.417l0.074,-0.418l0.074,-0.419l0.074,-0.419l0.073,-0.419l0.073,-0.419l0.072,-0.421l0.072,-0.42l0.071,-0.421l0.071,-0.422l0.07,-0.422l0.07,-0.423l0.07,-0.423l0.069,-0.424l0.068,-0.424l0.068,-0.425l0.068,-0.426l0.067,-0.426l0.067,-0.427l0.067,-0.428l0.066,-0.428l0.065,-0.429l0.065,-0.43l0.065,-0.43l0.064,-0.431l0.064,-0.432l0.063,-0.433l0.063,-0.434l0.062,-0.434l0.062,-0.436l0.062,-0.436l0.061,-0.437l0.061,-0.438l0.06,-0.439l0.06,-0.44l0.06,-0.441l0.059,-0.441l0.058,-0.443l0.058,-0.444l0.058,-0.445l0.058,-0.445l0.057,-0.447l0.056,-0.448l0.056,-0.449l0.056,-0.45l0.055,-0.452l0.055,-0.452l0.055,-0.453l0.054,-0.455l0.053,-0.456l0.053,-0.457l0.053,-0.459l0.053,-0.459l0.052,-0.461l0.051,-0.462l0.052,-0.463l0.05,-0.465l0.051,-0.466l0.05,-0.468l0.05,-0.468l0.049,-0.471l0.049,-0.471l0.048,-0.473l0.048,-0.474l0.048,-0.476l0.047,-0.478l0.047,-0.478l0.046,-0.481l0.047,-0.481l0.045,-0.484l0.046,-0.485l0.045,-0.486l0.044,-0.488l0.044,-0.49l0.044,-0.491l0.044,-0.493l0.043,-0.494l0.042,-0.496l0.043,-0.498l0.042,-0.5l0.041,-0.501l0.041,-0.503l0.041,-0.505l0.041,-0.507l0.04,-0.508l0.039,-0.51l0.04,-0.512l0.039,-0.514l0.038,-0.516l0.039,-0.517l0.038,-0.52l0.037,-0.521l0.037,-0.523l0.037,-0.526l0.037,-0.527l0.036,-0.529l0.035,-0.531l0.036,-0.533l0.035,-0.536l0.034,-0.537l0.035,-0.539l0.034,-0.542l0.033,-0.543l0.034,-0.546l0.033,-0.548l0.032,-0.549l0.033,-0.552l0.031,-0.555l0.032,-0.556l0.031,-0.559l0.031,-0.561l0.031,-0.563l0.03,-0.565l0.03,-0.568l0.029,-0.57l0.03,-0.572l0.029,-0.575l0.028,-0.577l0.028,-0.579l0.028,-0.582l0.028,-0.584l0.027,-0.587l0.027,-0.589l0.027,-0.591l0.026,-0.594l0.026,-0.597l0.025,-0.599l0.026,-0.601l0.025,-0.604l0.024,-0.607l0.025,-0.609l0.024,-0.612l0.024,-0.614l0.023,-0.617l0.023,-0.62l0.023,-0.622l0.022,-0.625l0.023,-0.628l0.021,-0.63l0.022,-0.633l0.021,-0.636l0.021,-0.639l0.021,-0.641l0.02,-0.644l0.02,-0.647l0.039,-1.303l0.038,-1.314l0.037,-1.326l0.036,-1.337l0.034,-1.349l0.034,-1.362l0.032,-1.373l0.031,-1.386l0.03,-1.398l0.029,-1.41l0.028,-1.424l0.026,-1.436l0.026,-1.449l0.024,-1.462l0.024,-1.476l0.022,-1.489l0.021,-1.502l0.02,-1.516l0.02,-1.53l0.018,-1.544l0.017,-1.558l0.016,-1.572l0.015,-1.587l0.014,-1.6l0.014,-1.616l0.012,-1.63l0.011,-1.645l0.01,-1.661l0.01,-1.675l0.008,-1.69l0.008,-1.707l0.006,-1.721l0.006,-1.737l0.005,-1.754l0.004,-1.769l0.003,-1.785l0.002,-1.802l0.001,-1.817l0.001,-1.835l167.328,0l0.525,0l0.524,0.002l0.523,0.002l0.521,0.003l0.521,0.004l0.519,0.004l0.518,0.006l0.517,0.006l0.517,0.007l0.516,0.008l0.516,0.009l0.515,0.01l0.515,0.01l0.515,0.012l0.516,0.012l0.515,0.013l0.516,0.014l0.516,0.015l0.517,0.015l0.517,0.017l0.518,0.017l0.519,0.018l0.521,0.019l0.521,0.02l0.523,0.021l0.524,0.021l0.526,0.023l0.527,0.023l0.53,0.024l0.531,0.025l0.533,0.025l0.536,0.027l0.537,0.027l0.541,0.029l0.542,0.029l0.546,0.03l0.548,0.031l0.552,0.031l0.554,0.033l0.557,0.033l0.561,0.034l0.565,0.035l0.568,0.036l0.571,0.037l0.576,0.037l0.579,0.039l0.583,0.039l0.588,0.04l0.592,0.041l0.596,0.042l0.601,0.042l0.606,0.044l0.611,0.044l0.615,0.045l0.621,0.046l0.625,0.047l0.631,0.048l0.637,0.048l0.642,0.05l0.648,0.05l1.313,0.103l1.338,0.106l0,-43.776l-0.433,0.054l-0.435,0.052l-0.437,0.052l-0.438,0.051l-0.441,0.051l-0.443,0.049l-0.446,0.048l-0.448,0.048l-0.451,0.047l-0.454,0.046l-0.456,0.045l-0.46,0.044l-0.463,0.044l-0.466,0.042l-0.47,0.042l-0.473,0.041l-0.477,0.04l-0.481,0.039l-0.484,0.039l-0.489,0.037l-0.493,0.037l-0.497,0.036l-0.502,0.035l-0.506,0.034l-0.511,0.033l-0.516,0.033l-0.52,0.032l-0.526,0.03l-0.531,0.03l-0.536,0.029l-0.542,0.029l-0.547,0.027l-0.553,0.027l-0.559,0.025l-0.565,0.025l-0.571,0.024l-0.577,0.024l-0.583,0.022l-0.59,0.021l-0.596,0.021l-0.604,0.02l-0.609,0.019l-0.617,0.018l-0.624,0.017l-0.631,0.017l-0.639,0.015l-0.646,0.015l-0.653,0.014l-0.661,0.013l-0.669,0.012l-0.677,0.012l-0.685,0.01l-0.693,0.01l-0.702,0.009l-0.71,0.008l-0.718,0.007l-0.728,0.006l-0.736,0.006l-0.745,0.005l-0.754,0.003l-0.763,0.003l-0.773,0.002l-0.782,0.002l-0.791,0l-64.512,0l0,-5.76l0,-0.348l0,-0.341l0.001,-0.336l0.002,-0.33l0.002,-0.324l0.003,-0.318l0.003,-0.312l0.003,-0.308l0.004,-0.302l0.005,-0.296l0.005,-0.292l0.006,-0.287l0.006,-0.282l0.007,-0.278l0.007,-0.273l0.009,-0.269l0.008,-0.264l0.01,-0.261l0.01,-0.256l0.01,-0.253l0.012,-0.249l0.012,-0.245l0.013,-0.242l0.013,-0.239l0.015,-0.236l0.015,-0.232l0.016,-0.23l0.016,-0.227l0.017,-0.224l0.019,-0.222l0.019,-0.219l0.02,-0.217l0.02,-0.215l0.022,-0.213l0.022,-0.211l0.023,-0.209l0.025,-0.208l0.025,-0.207l0.026,-0.205l0.027,-0.204l0.028,-0.203l0.028,-0.201l0.03,-0.202l0.031,-0.2l0.032,-0.2l0.033,-0.199l0.034,-0.2l0.035,-0.199l0.035,-0.199l0.038,-0.199l0.038,-0.2l0.039,-0.2l0.04,-0.2l0.042,-0.201l0.042,-0.202l0.044,-0.203l0.045,-0.204l0.046,-0.205l0.047,-0.207l0.048,-0.207l0.05,-0.21l0.051,-0.211l0.052,-0.213l0.054,-0.215l-47.808,0Zm-19.296,143.521l-0.6,0.001l-0.594,0l-0.587,0.001l-0.581,0.002l-0.575,0.002l-0.569,0.002l-0.563,0.003l-0.557,0.004l-0.551,0.004l-0.546,0.004l-0.541,0.006l-0.534,0.005l-0.531,0.006l-0.524,0.007l-0.52,0.008l-0.514,0.008l-0.51,0.008l-0.506,0.009l-0.5,0.01l-0.496,0.011l-0.492,0.011l-0.487,0.012l-0.483,0.013l-0.48,0.013l-0.475,0.014l-0.472,0.014l-0.468,0.016l-0.464,0.016l-0.461,0.017l-0.457,0.018l-0.455,0.018l-0.451,0.02l-0.448,0.02l-0.445,0.021l-0.442,0.021l-0.44,0.023l-0.438,0.023l-0.435,0.025l-0.432,0.025l-0.43,0.026l-0.429,0.027l-0.426,0.028l-0.425,0.029l-0.423,0.029l-0.422,0.031l-0.419,0.032l-0.419,0.032l-0.417,0.034l-0.417,0.035l-0.415,0.035l-0.415,0.037l-0.414,0.038l-0.413,0.038l-0.413,0.04l-0.413,0.041l-0.413,0.042l-0.412,0.043l-0.412,0.045l-0.413,0.045l-0.413,0.047l-0.413,0.047l-0.414,0.049l-0.415,0.051l-0.423,0.052l-1.729,-0.031l-0.069,-0.022l-0.007,0.136l-0.033,0.558l-0.033,0.555l-0.033,0.553l-0.034,0.551l-0.034,0.549l-0.034,0.547l-0.035,0.544l-0.035,0.543l-0.035,0.541l-0.036,0.539l-0.036,0.536l-0.037,0.535l-0.036,0.533l-0.038,0.531l-0.037,0.529l-0.038,0.527l-0.039,0.526l-0.038,0.523l-0.039,0.522l-0.04,0.52l-0.04,0.518l-0.04,0.516l-0.04,0.514l-0.041,0.513l-0.042,0.511l-0.041,0.509l-0.042,0.508l-0.043,0.506l-0.043,0.504l-0.043,0.503l-0.044,0.501l-0.044,0.499l-0.044,0.498l-0.045,0.496l-0.045,0.494l-0.045,0.493l-0.046,0.492l-0.047,0.49l-0.047,0.488l-0.047,0.487l-0.047,0.486l-0.048,0.484l-0.049,0.482l-0.048,0.482l-0.049,0.48l-0.05,0.478l-0.05,0.477l-0.05,0.476l-0.051,0.474l-0.051,0.473l-0.052,0.472l-0.052,0.471l-0.052,0.469l-0.053,0.468l-0.053,0.467l-0.054,0.465l-0.054,0.465l-0.055,0.463l-0.055,0.462l-0.055,0.46l-0.056,0.46l-0.056,0.459l-0.056,0.457l-0.058,0.457l-0.057,0.455l-0.058,0.454l-0.058,0.453l-0.059,0.453l-0.059,0.451l-0.06,0.45l-0.06,0.449l-0.06,0.449l-0.061,0.447l-0.061,0.446l-0.062,0.446l-0.063,0.445l-0.062,0.443l-0.063,0.443l-0.064,0.442l-0.064,0.442l-0.064,0.44l-0.065,0.44l-0.065,0.438l-0.066,0.438l-0.066,0.438l-0.067,0.437l-0.067,0.435l-0.068,0.436l-0.068,0.434l-0.068,0.434l-0.069,0.433l-0.07,0.433l-0.069,0.432l-0.071,0.431l-0.07,0.431l-0.072,0.43l-0.071,0.43l-0.072,0.429l-0.073,0.429l-0.073,0.428l-0.074,0.427l-0.074,0.428l-0.074,0.426l-0.075,0.427l-0.075,0.426l-0.04,0.22l0.077,-0.054l0.317,-0.228l0.316,-0.228l0.315,-0.229l0.315,-0.23l0.314,-0.23l0.314,-0.23l0.313,-0.231l0.312,-0.232l0.311,-0.232l0.311,-0.232l0.311,-0.234l0.309,-0.233l0.309,-0.235l0.308,-0.234l0.308,-0.236l0.307,-0.236l0.306,-0.236l0.306,-0.237l0.304,-0.237l0.305,-0.239l0.303,-0.238l0.303,-0.239l0.302,-0.239l0.302,-0.24l0.301,-0.241l0.3,-0.241l0.299,-0.242l0.299,-0.242l0.299,-0.243l0.297,-0.243l0.297,-0.244l0.296,-0.244l0.295,-0.244l0.295,-0.245l0.294,-0.246l0.293,-0.246l0.293,-0.247l0.292,-0.247l0.291,-0.248l0.291,-0.248l0.29,-0.249l0.289,-0.249l0.288,-0.249l0.288,-0.25l0.287,-0.251l0.286,-0.251l0.286,-0.252l0.285,-0.252l0.284,-0.252l0.283,-0.253l0.283,-0.254l0.283,-0.254l0.281,-0.254l0.28,-0.255l0.28,-0.256l0.28,-0.255l0.278,-0.257l0.278,-0.257l0.277,-0.257l0.276,-0.258l0.276,-0.258l0.275,-0.258l0.274,-0.26l0.273,-0.259l0.273,-0.26l0.272,-0.261l0.271,-0.261l0.271,-0.261l0.269,-0.262l0.27,-0.262l0.268,-0.263l0.268,-0.263l0.266,-0.264l0.266,-0.264l0.266,-0.264l0.264,-0.265l0.264,-0.266l0.263,-0.266l0.263,-0.266l0.261,-0.266l0.261,-0.268l0.26,-0.267l0.259,-0.268l0.259,-0.269l0.258,-0.269l0.257,-0.269l0.256,-0.27l0.256,-0.27l0.255,-0.27l0.254,-0.271l0.253,-0.272l0.253,-0.272l0.251,-0.272l0.251,-0.272l0.251,-0.273l0.249,-0.274l0.249,-0.274l0.248,-0.274l0.246,-0.274l0.247,-0.276l0.246,-0.275l0.244,-0.276l0.244,-0.276l0.244,-0.277l0.242,-0.277l0.242,-0.278l0.24,-0.277l0.241,-0.279l0.239,-0.278l0.238,-0.279l0.238,-0.28l0.237,-0.28l0.236,-0.28l0.236,-0.28l0.234,-0.281l0.234,-0.281l0.233,-0.282l0.232,-0.283l0.232,-0.282l0.23,-0.283l0.23,-0.283l0.229,-0.284l0.228,-0.283l0.228,-0.285l0.226,-0.284l0.226,-0.285l0.225,-0.286l0.224,-0.286l0.223,-0.286l0.223,-0.286l0.221,-0.287l0.221,-0.287l0.221,-0.288l0.219,-0.287l0.218,-0.289l0.218,-0.289l0.217,-0.288l0.216,-0.29l0.215,-0.289l0.214,-0.29l0.214,-0.291l0.212,-0.29l0.212,-0.291l0.211,-0.292l0.21,-0.291l0.21,-0.292l0.208,-0.292l0.208,-0.293l0.207,-0.293l0.206,-0.294l0.205,-0.293l0.204,-0.294l0.204,-0.294l0.202,-0.295l0.202,-0.295l0.201,-0.295l0.2,-0.296l0.199,-0.296l0.199,-0.296l0.197,-0.296l0.197,-0.297l0.196,-0.297l0.195,-0.298l0.194,-0.297l0.193,-0.298l0.193,-0.299l0.191,-0.298l0.191,-0.299l0.19,-0.3l0.189,-0.299l0.188,-0.3l0.188,-0.3l0.186,-0.301l0.185,-0.3l0.185,-0.301l0.184,-0.302l0.183,-0.301l0.182,-0.302l0.181,-0.302l0.18,-0.303l0.18,-0.302l0.179,-0.303l0.177,-0.303l0.177,-0.304l0.176,-0.304l0.175,-0.304l0.174,-0.304l0.174,-0.305l0.172,-0.305l0.172,-0.305l0.127,-0.228l-9.84,0Zm-30.148,-76.032l-0.002,1.106l-0.004,1.773l-0.005,1.756l-0.005,1.741l-0.007,1.725l-0.008,1.709l-0.008,1.695l-0.009,1.679l-0.011,1.664l-0.011,1.649l-0.012,1.634l-0.013,1.62l-0.015,1.605l-0.009,0.975l0.407,0.014l0.33,0.052l0.152,0.023l0.156,0.024l0.159,0.024l0.157,0.023l0.159,0.023l0.159,0.023l0.16,0.022l0.16,0.022l0.162,0.022l0.161,0.022l0.162,0.021l0.165,0.022l0.164,0.02l0.164,0.021l0.167,0.02l0.166,0.021l0.168,0.019l0.169,0.02l0.169,0.019l0.172,0.02l0.172,0.018l0.173,0.019l0.175,0.019l0.172,0.017l0.357,0.036l0.36,0.035l0.364,0.034l0.37,0.033l0.376,0.032l0.382,0.031l0.387,0.03l0.394,0.029l0.401,0.029l0.407,0.027l0.414,0.027l0.422,0.025l0.429,0.025l0.436,0.025l0.444,0.023l0.452,0.022l0.46,0.022l0.469,0.021l0.477,0.02l0.486,0.019l0.495,0.019l0.504,0.017l0.513,0.017l0.523,0.016l0.533,0.016l0.543,0.015l0.553,0.014l0.563,0.013l0.573,0.013l0.585,0.012l0.595,0.011l0.606,0.01l0.618,0.01l0.629,0.01l0.64,0.008l0.653,0.008l0.664,0.008l0.677,0.007l0.69,0.006l0.701,0.006l0.715,0.005l0.728,0.004l0.74,0.004l0.755,0.004l0.768,0.003l0.781,0.002l0.796,0.002l0.81,0.002l0.824,0.001l0.839,0.001l0.854,0l28.126,0l0,-3.357l0,-0.343l-0.001,-0.335l-0.001,-0.329l-0.001,-0.325l-0.002,-0.32l-0.002,-0.314l-0.003,-0.31l-0.003,-0.306l-0.004,-0.302l-0.004,-0.298l-0.005,-0.294l-0.005,-0.291l-0.006,-0.287l-0.006,-0.284l-0.006,-0.282l-0.007,-0.279l-0.008,-0.277l-0.008,-0.275l-0.008,-0.273l-0.009,-0.271l-0.01,-0.27l-0.01,-0.269l-0.011,-0.268l-0.011,-0.267l-0.012,-0.267l-0.012,-0.267l-0.013,-0.266l-0.013,-0.267l-0.014,-0.268l-0.015,-0.269l-0.015,-0.269l-0.016,-0.271l-0.016,-0.272l-0.018,-0.274l-0.017,-0.276l-0.019,-0.278l-0.019,-0.281l-0.019,-0.283l-0.021,-0.286l-0.021,-0.289l-0.022,-0.293l-0.022,-0.297l-0.024,-0.299l-0.023,-0.304l-0.025,-0.308l-0.025,-0.311l-0.054,-0.641l-0.056,-0.659l-0.059,-0.681l-0.063,-0.704l-0.065,-0.729l-0.069,-0.756l-0.072,-0.784l-0.076,-0.813l-0.079,-0.847l0.021,-0.475l-60.338,0Z" style="fill:#9a0000;"/></g></svg>